<?xml version="1.0" encoding="utf-8" ?>
<svg baseProfile="full" height="106.29921" version="1.1" width="230.314955" xmlns="http://www.w3.org/2000/svg" xmlns:ev="http://www.w3.org/2001/xml-events" xmlns:xlink="http://www.w3.org/1999/xlink"><defs /><rect fill="white" height="106.29921" opacity="1" stroke-width="0" width="230.314955" x="0.0" y="0.0" /><g><g id="vlines" stroke="lightgray"><line x1="194.881885" x2="194.881885" y1="70.86614" y2="106.29921" /><rect fill="#76e9ff" height="70.86614" opacity="0.8" stroke="lightgray" stroke-width="0" width="7.086614000000001" x="209.055113" y="35.43307" /><rect fill="gray" height="35.43307" opacity="0.7" stroke="lightgray" stroke-width="1" width="35.43307" x="194.881885" y="70.86614" /><text fill="black" font-family="Yu Gothic UI" font-size="12" stroke="black" stroke-width="0" x="198.425192" y="67.322833">D 12</text><line x1="230.314955" x2="230.314955" y1="70.86614" y2="106.29921" /></g><g id="hlines" stroke="lightgray"><line x1="194.881885" x2="230.314955" y1="70.86614" y2="70.86614" /><line x1="194.881885" x2="230.314955" y1="106.29921" y2="106.29921" /></g><line stroke="black" x1="194.881885" x2="230.314955" y1="70.86614" y2="70.86614" /><line stroke="black" x1="194.881885" x2="230.314955" y1="106.29921" y2="106.29921" /></g><g><g id="WP1:_software_development"><rect fill="#f8696b" height="28.346456" opacity="0.85" stroke="#f8696b" stroke-width="2" width="28.346456" x="198.425192" y="74.409447" /><rect fill="#909090" height="10.629921" opacity="0.2" stroke="#f8696b" stroke-width="1" width="28.346456" x="198.425192" y="92.125982" /><rect fill="#0000FF" height="14.173228" opacity="0.35" stroke="#f8696b" stroke-width="1" width="17.716535" x="209.055113" y="74.409447" /><rect fill="#000000" height="28.346456" opacity="0.2" stroke="#f8696b" stroke-width="1" width="17.716535" x="198.425192" y="74.409447" /><rect fill="#000000" height="28.346456" opacity="0.2" stroke="#f8696b" stroke-width="1" width="17.716535" x="209.055113" y="74.409447" /><text fill="black" font-family="Yu Gothic UI" font-size="15" stroke="black" stroke-width="0" x="201.968499" y="88.582675">WP1: software development</text><text fill="purple" font-family="Yu Gothic UI" font-size="10" stroke="black" stroke-width="0" x="201.968499" y="100.9842495">Development</text></g><g><text fill="black" font-family="Yu Gothic UI" font-size="18" stroke="black" stroke-width="0" x="10.629921" y="95.669289">Development</text></g><g /><line stroke="black" x1="0.0" x2="230.314955" y1="70.86614" y2="70.86614" /></g></svg>