<?xml version="1.0" encoding="utf-8" ?>
<svg baseProfile="full" height="177.16535" version="1.1" width="35.43307" xmlns="http://www.w3.org/2000/svg" xmlns:ev="http://www.w3.org/2001/xml-events" xmlns:xlink="http://www.w3.org/1999/xlink"><defs /><rect fill="white" height="177.16535" opacity="1" stroke-width="0" width="35.43307" x="0.0" y="0.0" /><g><g id="vlines" stroke="lightgray"><line x1="0.0" x2="0.0" y1="70.86614" y2="141.73228" /><rect fill="gray" height="70.86614" opacity="0.7" stroke="lightgray" stroke-width="1" width="35.43307" x="0.0" y="70.86614" /><text fill="black" font-family="Yu Gothic UI" font-size="12" stroke="black" stroke-width="0" x="3.543307" y="67.322833">D 12</text><line x1="35.43307" x2="35.43307" y1="70.86614" y2="141.73228" /></g><g id="hlines" stroke="lightgray"><line x1="0.0" x2="35.43307" y1="70.86614" y2="70.86614" /><line x1="0.0" x2="35.43307" y1="106.29921" y2="106.29921" /><line x1="0.0" x2="35.43307" y1="141.73228" y2="141.73228" /></g><line stroke="black" x1="0.0" x2="35.43307" y1="70.86614" y2="70.86614" /><line stroke="black" x1="0.0" x2="35.43307" y1="141.73228" y2="141.73228" /></g><g><g><text fill="black" font-family="Yu Gothic UI" font-size="18" stroke="black" stroke-width="0" x="10.629921" y="95.669289">New Software ABC</text><rect fill="purple" height="49.606297999999995" opacity="0.5" stroke="lightgray" stroke-width="0" width="7.086614000000001" x="2.8346456" y="88.582675" /><g><g id="WP1:_software_development"><rect fill="#f8696b" height="28.346456" opacity="0.85" stroke="#f8696b" stroke-width="2" width="28.346456" x="3.543307" y="109.842517" /><rect fill="#909090" height="10.629921" opacity="0.2" stroke="#f8696b" stroke-width="1" width="28.346456" x="3.543307" y="127.559052" /><rect fill="#0000FF" height="14.173228" opacity="0.35" stroke="#f8696b" stroke-width="1" width="17.716535" x="14.173228" y="109.842517" /><rect fill="#000000" height="28.346456" opacity="0.2" stroke="#f8696b" stroke-width="1" width="17.716535" x="3.543307" y="109.842517" /><rect fill="#000000" height="28.346456" opacity="0.2" stroke="#f8696b" stroke-width="1" width="17.716535" x="14.173228" y="109.842517" /><text fill="black" font-family="Yu Gothic UI" font-size="15" stroke="black" stroke-width="0" x="7.086614" y="124.015745">WP1: software development</text><text fill="#9b9b9b" font-family="Yu Gothic UI" font-size="12" stroke="#9b9b9b" stroke-width="0" style="text-anchor:end" x="0.0" y="138.188973">09/12/22</text><text fill="#9b9b9b" font-family="Yu Gothic UI" font-size="12" stroke="#9b9b9b" stroke-width="0" x="35.43307" y="138.188973">29/09/23</text><text fill="purple" font-family="Yu Gothic UI" font-size="10" stroke="black" stroke-width="0" x="7.086614" y="136.4173195">Development</text></g></g></g><g><g /><g /><g /><g /><g /><g /></g></g></svg>