<?xml version="1.0" encoding="utf-8" ?>
<svg baseProfile="full" height="389.76377" version="1.1" width="1594.4881500000001" xmlns="http://www.w3.org/2000/svg" xmlns:ev="http://www.w3.org/2001/xml-events" xmlns:xlink="http://www.w3.org/1999/xlink"><defs /><rect fill="white" height="389.76377" opacity="1" stroke-width="0" width="1594.4881500000001" x="0.0" y="0.0" /><g><g id="vlines" stroke="lightgray"><line x1="0.0" x2="0.0" y1="70.86614" y2="354.3307" /><text fill="black" font-family="Yu Gothic UI" font-size="12" stroke="black" stroke-width="0" x="3.543307" y="67.322833">12</text><line x1="35.43307" x2="35.43307" y1="70.86614" y2="354.3307" /><rect fill="#76e9ff" height="318.89763" opacity="0.8" stroke="lightgray" stroke-width="0" width="7.086614000000001" x="49.606297999999995" y="35.43307" /><text fill="black" font-family="Yu Gothic UI" font-size="12" stroke="black" stroke-width="0" x="38.976377" y="67.322833">01</text><text fill="#9b9b9b" font-family="Yu Gothic UI" font-size="20" font-weight="bold" stroke="#9b9b9b" stroke-width="0" x="38.976377" y="17.716535">2023</text><line stroke="#9b9b9b" stroke-dasharray="2,2" x1="35.43307" x2="35.43307" y1="0" y2="354.3307" /><line x1="70.86614" x2="70.86614" y1="70.86614" y2="354.3307" /><text fill="black" font-family="Yu Gothic UI" font-size="12" stroke="black" stroke-width="0" x="74.409447" y="67.322833">02</text><line x1="106.29921" x2="106.29921" y1="70.86614" y2="354.3307" /><text fill="black" font-family="Yu Gothic UI" font-size="12" stroke="black" stroke-width="0" x="109.842517" y="67.322833">03</text><line x1="141.73228" x2="141.73228" y1="70.86614" y2="354.3307" /><text fill="black" font-family="Yu Gothic UI" font-size="12" stroke="black" stroke-width="0" x="145.275587" y="67.322833">04</text><line x1="177.16535" x2="177.16535" y1="70.86614" y2="354.3307" /><text fill="black" font-family="Yu Gothic UI" font-size="12" stroke="black" stroke-width="0" x="180.708657" y="67.322833">05</text><line x1="212.59842" x2="212.59842" y1="70.86614" y2="354.3307" /><text fill="black" font-family="Yu Gothic UI" font-size="12" stroke="black" stroke-width="0" x="216.141727" y="67.322833">06</text><line x1="248.03149000000002" x2="248.03149000000002" y1="70.86614" y2="354.3307" /><text fill="black" font-family="Yu Gothic UI" font-size="12" stroke="black" stroke-width="0" x="251.574797" y="67.322833">07</text><line x1="283.46456" x2="283.46456" y1="70.86614" y2="354.3307" /><text fill="black" font-family="Yu Gothic UI" font-size="12" stroke="black" stroke-width="0" x="287.007867" y="67.322833">08</text><line x1="318.89763" x2="318.89763" y1="70.86614" y2="354.3307" /><text fill="black" font-family="Yu Gothic UI" font-size="12" stroke="black" stroke-width="0" x="322.440937" y="67.322833">09</text><line x1="354.3307" x2="354.3307" y1="70.86614" y2="354.3307" /><text fill="black" font-family="Yu Gothic UI" font-size="12" stroke="black" stroke-width="0" x="357.874007" y="67.322833">10</text><line x1="389.76377" x2="389.76377" y1="70.86614" y2="354.3307" /><text fill="black" font-family="Yu Gothic UI" font-size="12" stroke="black" stroke-width="0" x="393.307077" y="67.322833">11</text><line x1="425.19684" x2="425.19684" y1="70.86614" y2="354.3307" /><text fill="black" font-family="Yu Gothic UI" font-size="12" stroke="black" stroke-width="0" x="428.740147" y="67.322833">12</text><line x1="460.62991" x2="460.62991" y1="70.86614" y2="354.3307" /><text fill="black" font-family="Yu Gothic UI" font-size="12" stroke="black" stroke-width="0" x="464.173217" y="67.322833">01</text><text fill="#9b9b9b" font-family="Yu Gothic UI" font-size="20" font-weight="bold" stroke="#9b9b9b" stroke-width="0" x="464.173217" y="17.716535">2024</text><line stroke="#9b9b9b" stroke-dasharray="2,2" x1="460.62991" x2="460.62991" y1="0" y2="354.3307" /><line x1="496.06298000000004" x2="496.06298000000004" y1="70.86614" y2="354.3307" /><text fill="black" font-family="Yu Gothic UI" font-size="12" stroke="black" stroke-width="0" x="499.606287" y="67.322833">02</text><line x1="531.49605" x2="531.49605" y1="70.86614" y2="354.3307" /><text fill="black" font-family="Yu Gothic UI" font-size="12" stroke="black" stroke-width="0" x="535.039357" y="67.322833">03</text><line x1="566.92912" x2="566.92912" y1="70.86614" y2="354.3307" /><text fill="black" font-family="Yu Gothic UI" font-size="12" stroke="black" stroke-width="0" x="570.472427" y="67.322833">04</text><line x1="602.36219" x2="602.36219" y1="70.86614" y2="354.3307" /><text fill="black" font-family="Yu Gothic UI" font-size="12" stroke="black" stroke-width="0" x="605.905497" y="67.322833">05</text><line x1="637.79526" x2="637.79526" y1="70.86614" y2="354.3307" /><text fill="black" font-family="Yu Gothic UI" font-size="12" stroke="black" stroke-width="0" x="641.338567" y="67.322833">06</text><line x1="673.22833" x2="673.22833" y1="70.86614" y2="354.3307" /><text fill="black" font-family="Yu Gothic UI" font-size="12" stroke="black" stroke-width="0" x="676.7716369999999" y="67.322833">07</text><line x1="708.6614" x2="708.6614" y1="70.86614" y2="354.3307" /><text fill="black" font-family="Yu Gothic UI" font-size="12" stroke="black" stroke-width="0" x="712.204707" y="67.322833">08</text><line x1="744.09447" x2="744.09447" y1="70.86614" y2="354.3307" /><text fill="black" font-family="Yu Gothic UI" font-size="12" stroke="black" stroke-width="0" x="747.637777" y="67.322833">09</text><line x1="779.52754" x2="779.52754" y1="70.86614" y2="354.3307" /><text fill="black" font-family="Yu Gothic UI" font-size="12" stroke="black" stroke-width="0" x="783.070847" y="67.322833">10</text><line x1="814.96061" x2="814.96061" y1="70.86614" y2="354.3307" /><text fill="black" font-family="Yu Gothic UI" font-size="12" stroke="black" stroke-width="0" x="818.503917" y="67.322833">11</text><line x1="850.39368" x2="850.39368" y1="70.86614" y2="354.3307" /><text fill="black" font-family="Yu Gothic UI" font-size="12" stroke="black" stroke-width="0" x="853.936987" y="67.322833">12</text><line x1="885.8267500000001" x2="885.8267500000001" y1="70.86614" y2="354.3307" /><text fill="black" font-family="Yu Gothic UI" font-size="12" stroke="black" stroke-width="0" x="889.370057" y="67.322833">01</text><text fill="#9b9b9b" font-family="Yu Gothic UI" font-size="20" font-weight="bold" stroke="#9b9b9b" stroke-width="0" x="889.370057" y="17.716535">2025</text><line stroke="#9b9b9b" stroke-dasharray="2,2" x1="885.8267500000001" x2="885.8267500000001" y1="0" y2="354.3307" /><line x1="921.25982" x2="921.25982" y1="70.86614" y2="354.3307" /><text fill="black" font-family="Yu Gothic UI" font-size="12" stroke="black" stroke-width="0" x="924.803127" y="67.322833">02</text><line x1="956.69289" x2="956.69289" y1="70.86614" y2="354.3307" /><text fill="black" font-family="Yu Gothic UI" font-size="12" stroke="black" stroke-width="0" x="960.236197" y="67.322833">03</text><line x1="992.1259600000001" x2="992.1259600000001" y1="70.86614" y2="354.3307" /><text fill="black" font-family="Yu Gothic UI" font-size="12" stroke="black" stroke-width="0" x="995.669267" y="67.322833">04</text><line x1="1027.5590300000001" x2="1027.5590300000001" y1="70.86614" y2="354.3307" /><text fill="black" font-family="Yu Gothic UI" font-size="12" stroke="black" stroke-width="0" x="1031.102337" y="67.322833">05</text><line x1="1062.9921" x2="1062.9921" y1="70.86614" y2="354.3307" /><text fill="black" font-family="Yu Gothic UI" font-size="12" stroke="black" stroke-width="0" x="1066.535407" y="67.322833">06</text><line x1="1098.42517" x2="1098.42517" y1="70.86614" y2="354.3307" /><text fill="black" font-family="Yu Gothic UI" font-size="12" stroke="black" stroke-width="0" x="1101.968477" y="67.322833">07</text><line x1="1133.85824" x2="1133.85824" y1="70.86614" y2="354.3307" /><text fill="black" font-family="Yu Gothic UI" font-size="12" stroke="black" stroke-width="0" x="1137.401547" y="67.322833">08</text><line x1="1169.29131" x2="1169.29131" y1="70.86614" y2="354.3307" /><text fill="black" font-family="Yu Gothic UI" font-size="12" stroke="black" stroke-width="0" x="1172.834617" y="67.322833">09</text><line x1="1204.72438" x2="1204.72438" y1="70.86614" y2="354.3307" /><text fill="black" font-family="Yu Gothic UI" font-size="12" stroke="black" stroke-width="0" x="1208.267687" y="67.322833">10</text><line x1="1240.15745" x2="1240.15745" y1="70.86614" y2="354.3307" /><text fill="black" font-family="Yu Gothic UI" font-size="12" stroke="black" stroke-width="0" x="1243.700757" y="67.322833">11</text><line x1="1275.59052" x2="1275.59052" y1="70.86614" y2="354.3307" /><text fill="black" font-family="Yu Gothic UI" font-size="12" stroke="black" stroke-width="0" x="1279.1338269999999" y="67.322833">12</text><line x1="1311.02359" x2="1311.02359" y1="70.86614" y2="354.3307" /><text fill="black" font-family="Yu Gothic UI" font-size="12" stroke="black" stroke-width="0" x="1314.566897" y="67.322833">01</text><text fill="#9b9b9b" font-family="Yu Gothic UI" font-size="20" font-weight="bold" stroke="#9b9b9b" stroke-width="0" x="1314.566897" y="17.716535">2026</text><line stroke="#9b9b9b" stroke-dasharray="2,2" x1="1311.02359" x2="1311.02359" y1="0" y2="354.3307" /><line x1="1346.45666" x2="1346.45666" y1="70.86614" y2="354.3307" /><text fill="black" font-family="Yu Gothic UI" font-size="12" stroke="black" stroke-width="0" x="1349.999967" y="67.322833">02</text><line x1="1381.88973" x2="1381.88973" y1="70.86614" y2="354.3307" /><text fill="black" font-family="Yu Gothic UI" font-size="12" stroke="black" stroke-width="0" x="1385.433037" y="67.322833">03</text><line x1="1417.3228" x2="1417.3228" y1="70.86614" y2="354.3307" /><text fill="black" font-family="Yu Gothic UI" font-size="12" stroke="black" stroke-width="0" x="1420.866107" y="67.322833">04</text><line x1="1452.75587" x2="1452.75587" y1="70.86614" y2="354.3307" /><text fill="black" font-family="Yu Gothic UI" font-size="12" stroke="black" stroke-width="0" x="1456.299177" y="67.322833">05</text><line x1="1488.18894" x2="1488.18894" y1="70.86614" y2="354.3307" /><text fill="black" font-family="Yu Gothic UI" font-size="12" stroke="black" stroke-width="0" x="1491.732247" y="67.322833">06</text><line x1="1523.62201" x2="1523.62201" y1="70.86614" y2="354.3307" /><text fill="black" font-family="Yu Gothic UI" font-size="12" stroke="black" stroke-width="0" x="1527.165317" y="67.322833">07</text><line x1="1559.05508" x2="1559.05508" y1="70.86614" y2="354.3307" /><text fill="black" font-family="Yu Gothic UI" font-size="12" stroke="black" stroke-width="0" x="1562.598387" y="67.322833">08</text><line x1="1594.4881500000001" x2="1594.4881500000001" y1="70.86614" y2="354.3307" /></g><g id="hlines" stroke="lightgray"><line x1="0.0" x2="1594.4881500000001" y1="70.86614" y2="70.86614" /><line x1="0.0" x2="1594.4881500000001" y1="106.29921" y2="106.29921" /><line x1="0.0" x2="1594.4881500000001" y1="141.73228" y2="141.73228" /><line x1="0.0" x2="1594.4881500000001" y1="177.16535" y2="177.16535" /><line x1="0.0" x2="1594.4881500000001" y1="212.59842" y2="212.59842" /><line x1="0.0" x2="1594.4881500000001" y1="248.03149000000002" y2="248.03149000000002" /><line x1="0.0" x2="1594.4881500000001" y1="283.46456" y2="283.46456" /><line x1="0.0" x2="1594.4881500000001" y1="318.89763" y2="318.89763" /><line x1="0.0" x2="1594.4881500000001" y1="354.3307" y2="354.3307" /></g><line stroke="black" x1="0.0" x2="1594.4881500000001" y1="70.86614" y2="70.86614" /><line stroke="black" x1="0.0" x2="1594.4881500000001" y1="354.3307" y2="354.3307" /></g><g><g><text fill="black" font-family="Yu Gothic UI" font-size="18" stroke="black" stroke-width="0" x="10.629921" y="95.669289">New Software ABC</text><rect fill="purple" height="262.204718" opacity="0.5" stroke="lightgray" stroke-width="0" width="7.086614000000001" x="2.8346456" y="88.582675" /><g><g id="WP1:_software_development"><rect fill="#FFFF90" height="28.346456" opacity="0.85" stroke="#FFFF90" stroke-width="2" width="347.244086" x="3.543307" y="109.842517" /><rect fill="#909090" height="10.629921" opacity="0.2" stroke="#FFFF90" stroke-width="1" width="347.244086" x="3.543307" y="127.559052" /><rect fill="#0000FF" height="14.173228" opacity="0.35" stroke="#FFFF90" stroke-width="1" width="17.716535" x="333.070858" y="109.842517" /><rect fill="#000000" height="28.346456" opacity="0.2" stroke="#FFFF90" stroke-width="1" width="17.716535" x="3.543307" y="109.842517" /><text fill="black" font-family="Yu Gothic UI" font-size="15" stroke="black" stroke-width="0" x="7.086614" y="124.015745">WP1: software development</text><text fill="#9b9b9b" font-family="Yu Gothic UI" font-size="12" stroke="#9b9b9b" stroke-width="0" style="text-anchor:end" x="0.0" y="138.188973">09/12/22</text><text fill="#9b9b9b" font-family="Yu Gothic UI" font-size="12" stroke="#9b9b9b" stroke-width="0" x="354.3307" y="138.188973">29/09/23</text><text fill="purple" font-family="Yu Gothic UI" font-size="10" stroke="black" stroke-width="0" x="7.086614" y="136.4173195">Development</text></g><g id="WP2:_test_phase"><rect fill="#FFFF90" height="28.346456" opacity="0.85" stroke="#FFFF90" stroke-width="2" width="99.212596" x="357.874007" y="145.275587" /><rect fill="#909090" height="10.629921" opacity="0.2" stroke="#FFFF90" stroke-width="1" width="99.212596" x="357.874007" y="162.992122" /><rect fill="#0000FF" height="14.173228" opacity="0.35" stroke="#FFFF90" stroke-width="1" width="17.716535" x="357.874007" y="145.275587" /><rect fill="#0000FF" height="14.173228" opacity="0.35" stroke="#FFFF90" stroke-width="1" width="17.716535" x="439.370068" y="145.275587" /><text fill="black" font-family="Yu Gothic UI" font-size="15" stroke="black" stroke-width="0" x="361.417314" y="159.448815">WP2: test phase</text><text fill="#9b9b9b" font-family="Yu Gothic UI" font-size="12" stroke="#9b9b9b" stroke-width="0" style="text-anchor:end" x="354.3307" y="173.622043">02/10/23</text><text fill="#9b9b9b" font-family="Yu Gothic UI" font-size="12" stroke="#9b9b9b" stroke-width="0" x="460.62991" y="173.622043">29/12/23</text><text fill="purple" font-family="Yu Gothic UI" font-size="10" stroke="black" stroke-width="0" x="361.417314" y="171.8503895">Development</text></g><g id="WP3:_6_months_warranty"><rect fill="#FFFF90" height="28.346456" opacity="0.85" stroke="#FFFF90" stroke-width="2" width="205.511806" x="464.173217" y="180.708657" /><rect fill="#909090" height="10.629921" opacity="0.2" stroke="#FFFF90" stroke-width="1" width="205.511806" x="464.173217" y="198.425192" /><rect fill="#0000FF" height="14.173228" opacity="0.35" stroke="#FFFF90" stroke-width="1" width="17.716535" x="464.173217" y="180.708657" /><text fill="black" font-family="Yu Gothic UI" font-size="15" stroke="black" stroke-width="0" x="467.716524" y="194.881885">WP3: 6 months warranty</text><text fill="#9b9b9b" font-family="Yu Gothic UI" font-size="12" stroke="#9b9b9b" stroke-width="0" style="text-anchor:end" x="460.62991" y="209.055113">02/01/24</text><text fill="#9b9b9b" font-family="Yu Gothic UI" font-size="12" stroke="#9b9b9b" stroke-width="0" x="673.22833" y="209.055113">28/06/24</text><text fill="purple" font-family="Yu Gothic UI" font-size="10" stroke="black" stroke-width="0" x="467.716524" y="207.2834595">Development</text></g><g id="WP4:_Corrective_maintenance__12_months_"><rect fill="#FFFF90" height="28.346456" opacity="0.85" stroke="#FFFF90" stroke-width="2" width="418.110226" x="676.7716369999999" y="216.141727" /><rect fill="#909090" height="10.629921" opacity="0.2" stroke="#FFFF90" stroke-width="1" width="418.110226" x="676.7716369999999" y="233.858262" /><rect fill="#0000FF" height="14.173228" opacity="0.35" stroke="#FFFF90" stroke-width="1" width="17.716535" x="676.7716369999999" y="216.141727" /><text fill="black" font-family="Yu Gothic UI" font-size="15" stroke="black" stroke-width="0" x="680.314944" y="230.314955">WP4: Corrective maintenance (12 months)</text><text fill="#9b9b9b" font-family="Yu Gothic UI" font-size="12" stroke="#9b9b9b" stroke-width="0" style="text-anchor:end" x="673.22833" y="244.488183">01/07/24</text><text fill="#9b9b9b" font-family="Yu Gothic UI" font-size="12" stroke="#9b9b9b" stroke-width="0" x="1098.42517" y="244.488183">30/06/25</text><text fill="purple" font-family="Yu Gothic UI" font-size="10" stroke="black" stroke-width="0" x="680.314944" y="242.7165295">Maintenance</text></g><g id="WP6:_Corrective_maintenance__12_months_"><rect fill="#FFFF90" height="28.346456" opacity="0.85" stroke="#FFFF90" stroke-width="2" width="418.110226" x="1101.968477" y="251.574797" /><rect fill="#909090" height="10.629921" opacity="0.2" stroke="#FFFF90" stroke-width="1" width="418.110226" x="1101.968477" y="269.291332" /><rect fill="#0000FF" height="14.173228" opacity="0.35" stroke="#FFFF90" stroke-width="1" width="17.716535" x="1101.968477" y="251.574797" /><text fill="black" font-family="Yu Gothic UI" font-size="15" stroke="black" stroke-width="0" x="1105.511784" y="265.748025">WP6: Corrective maintenance (12 months)</text><text fill="#9b9b9b" font-family="Yu Gothic UI" font-size="12" stroke="#9b9b9b" stroke-width="0" style="text-anchor:end" x="1098.42517" y="279.921253">01/07/25</text><text fill="#9b9b9b" font-family="Yu Gothic UI" font-size="12" stroke="#9b9b9b" stroke-width="0" x="1523.62201" y="279.921253">30/06/26</text><text fill="purple" font-family="Yu Gothic UI" font-size="10" stroke="black" stroke-width="0" x="1105.511784" y="278.1495995">Maintenance</text></g><g id="WP5:_Evolutive_maintenance__12_months_"><rect fill="#FFFF90" height="28.346456" opacity="0.85" stroke="#FFFF90" stroke-width="2" width="418.110226" x="464.173217" y="287.007867" /><rect fill="#909090" height="10.629921" opacity="0.2" stroke="#FFFF90" stroke-width="1" width="418.110226" x="464.173217" y="304.724402" /><rect fill="#0000FF" height="14.173228" opacity="0.35" stroke="#FFFF90" stroke-width="1" width="17.716535" x="464.173217" y="287.007867" /><text fill="black" font-family="Yu Gothic UI" font-size="15" stroke="black" stroke-width="0" x="467.716524" y="301.18109499999997">WP5: Evolutive maintenance (12 months)</text><text fill="#9b9b9b" font-family="Yu Gothic UI" font-size="12" stroke="#9b9b9b" stroke-width="0" style="text-anchor:end" x="460.62991" y="315.354323">02/01/24</text><text fill="#9b9b9b" font-family="Yu Gothic UI" font-size="12" stroke="#9b9b9b" stroke-width="0" x="885.82675" y="315.354323">31/12/24</text><text fill="purple" font-family="Yu Gothic UI" font-size="10" stroke="black" stroke-width="0" x="467.716524" y="313.5826695">Maintenance</text></g><g id="WP7:_Evolutive_maintenance__12_months_"><rect fill="#FFFF90" height="28.346456" opacity="0.85" stroke="#FFFF90" stroke-width="2" width="418.110226" x="889.370057" y="322.440937" /><rect fill="#909090" height="10.629921" opacity="0.2" stroke="#FFFF90" stroke-width="1" width="418.110226" x="889.370057" y="340.157472" /><rect fill="#0000FF" height="14.173228" opacity="0.35" stroke="#FFFF90" stroke-width="1" width="17.716535" x="889.370057" y="322.440937" /><text fill="black" font-family="Yu Gothic UI" font-size="15" stroke="black" stroke-width="0" x="892.913364" y="336.614165">WP7: Evolutive maintenance (12 months)</text><text fill="#9b9b9b" font-family="Yu Gothic UI" font-size="12" stroke="#9b9b9b" stroke-width="0" style="text-anchor:end" x="885.82675" y="350.787393">01/01/25</text><text fill="#9b9b9b" font-family="Yu Gothic UI" font-size="12" stroke="#9b9b9b" stroke-width="0" x="1311.02359" y="350.787393">31/12/25</text><text fill="purple" font-family="Yu Gothic UI" font-size="10" stroke="black" stroke-width="0" x="892.913364" y="349.0157395">Maintenance</text></g></g></g><g><g><line stroke="black" stroke-dasharray="5,3" x1="347.244086" x2="354.3307" y1="124.015745" y2="124.015745" /><marker id="id36" markerHeight="10" markerWidth="10" refX="5" refY="5"><circle cx="5" cy="5" fill="#000000" opacity="0.5" r="5" stroke-width="0" /></marker><line marker-end="url(#id36)" stroke="black" stroke-dasharray="5,3" x1="354.3307" x2="354.3307" y1="124.015745" y2="159.448815" /></g><g><line stroke="black" stroke-dasharray="5,3" x1="453.543296" x2="460.62991" y1="159.448815" y2="159.448815" /><marker id="id37" markerHeight="10" markerWidth="10" refX="5" refY="5"><circle cx="5" cy="5" fill="#000000" opacity="0.5" r="5" stroke-width="0" /></marker><line marker-end="url(#id37)" stroke="black" stroke-dasharray="5,3" x1="460.62991" x2="460.62991" y1="159.448815" y2="194.881885" /></g><g><line stroke="black" stroke-dasharray="5,3" x1="666.141716" x2="673.22833" y1="194.881885" y2="194.881885" /><marker id="id38" markerHeight="10" markerWidth="10" refX="5" refY="5"><circle cx="5" cy="5" fill="#000000" opacity="0.5" r="5" stroke-width="0" /></marker><line marker-end="url(#id38)" stroke="black" stroke-dasharray="5,3" x1="673.22833" x2="673.22833" y1="194.881885" y2="230.314955" /></g><g><line stroke="black" stroke-dasharray="5,3" x1="1091.338556" x2="1098.42517" y1="230.314955" y2="230.314955" /><marker id="id39" markerHeight="10" markerWidth="10" refX="5" refY="5"><circle cx="5" cy="5" fill="#000000" opacity="0.5" r="5" stroke-width="0" /></marker><line marker-end="url(#id39)" stroke="black" stroke-dasharray="5,3" x1="1098.42517" x2="1098.42517" y1="230.314955" y2="265.748025" /><line stroke="black" stroke-dasharray="5,3" x1="1091.338556" x2="1098.42517" y1="230.314955" y2="230.314955" /><marker id="id40" markerHeight="10" markerWidth="10" refX="5" refY="5"><circle cx="5" cy="5" fill="#000000" opacity="0.5" r="5" stroke-width="0" /></marker><line marker-end="url(#id40)" stroke="black" stroke-dasharray="5,3" x1="1098.42517" x2="1098.42517" y1="230.314955" y2="265.748025" /></g><g><line stroke="black" stroke-dasharray="5,3" x1="453.543296" x2="460.62991" y1="159.448815" y2="159.448815" /><marker id="id41" markerHeight="10" markerWidth="10" refX="5" refY="5"><circle cx="5" cy="5" fill="#000000" opacity="0.5" r="5" stroke-width="0" /></marker><line marker-end="url(#id41)" stroke="black" stroke-dasharray="5,3" x1="460.62991" x2="460.62991" y1="159.448815" y2="301.18109499999997" /></g><g><line stroke="black" stroke-dasharray="5,3" x1="878.740136" x2="885.82675" y1="301.18109499999997" y2="301.18109499999997" /><marker id="id42" markerHeight="10" markerWidth="10" refX="5" refY="5"><circle cx="5" cy="5" fill="#000000" opacity="0.5" r="5" stroke-width="0" /></marker><line marker-end="url(#id42)" stroke="black" stroke-dasharray="5,3" x1="885.82675" x2="885.82675" y1="301.18109499999997" y2="336.614165" /></g></g></g></svg>