<?xml version="1.0" encoding="utf-8" ?>
<svg baseProfile="full" height="318.89763" version="1.1" width="1435.039335" xmlns="http://www.w3.org/2000/svg" xmlns:ev="http://www.w3.org/2001/xml-events" xmlns:xlink="http://www.w3.org/1999/xlink"><defs /><rect fill="white" height="318.89763" opacity="1" stroke-width="0" width="1435.039335" x="0.0" y="0.0" /><g><g id="vlines" stroke="lightgray"><line x1="194.881885" x2="194.881885" y1="70.86614" y2="318.89763" /><text fill="black" font-family="Yu Gothic UI" font-size="12" stroke="black" stroke-width="0" x="198.425192" y="67.322833">L 30</text><text fill="black" font-family="Yu Gothic UI" font-size="16" font-weight="bold" stroke="black" stroke-width="0" x="198.425192" y="53.149605">05</text><line x1="230.314955" x2="230.314955" y1="70.86614" y2="318.89763" /><text fill="black" font-family="Yu Gothic UI" font-size="12" stroke="black" stroke-width="0" x="233.858262" y="67.322833">M 31</text><line x1="265.748025" x2="265.748025" y1="70.86614" y2="318.89763" /><rect fill="#76e9ff" height="283.46456" opacity="0.8" stroke="lightgray" stroke-width="0" width="7.086614000000001" x="279.92125300000004" y="35.43307" /><text fill="black" font-family="Yu Gothic UI" font-size="12" stroke="black" stroke-width="0" x="269.291332" y="67.322833">M 01</text><text fill="#800000" font-family="Yu Gothic UI" font-size="18" font-weight="bold" stroke="#800000" stroke-width="0" x="269.291332" y="35.43307">février</text><line x1="301.181095" x2="301.181095" y1="70.86614" y2="318.89763" /><text fill="black" font-family="Yu Gothic UI" font-size="12" stroke="black" stroke-width="0" x="304.724402" y="67.322833">J 02</text><line x1="336.614165" x2="336.614165" y1="70.86614" y2="318.89763" /><text fill="black" font-family="Yu Gothic UI" font-size="12" stroke="black" stroke-width="0" x="340.157472" y="67.322833">V 03</text><line x1="372.047235" x2="372.047235" y1="70.86614" y2="318.89763" /><rect fill="gray" height="248.03149000000002" opacity="0.7" stroke="lightgray" stroke-width="1" width="35.43307" x="372.047235" y="70.86614" /><text fill="black" font-family="Yu Gothic UI" font-size="12" stroke="black" stroke-width="0" x="375.59054199999997" y="67.322833">S 04</text><line x1="407.480305" x2="407.480305" y1="70.86614" y2="318.89763" /><rect fill="gray" height="248.03149000000002" opacity="0.7" stroke="lightgray" stroke-width="1" width="35.43307" x="407.480305" y="70.86614" /><text fill="black" font-family="Yu Gothic UI" font-size="12" stroke="black" stroke-width="0" x="411.023612" y="67.322833">D 05</text><line x1="442.91337500000003" x2="442.91337500000003" y1="70.86614" y2="318.89763" /><text fill="black" font-family="Yu Gothic UI" font-size="12" stroke="black" stroke-width="0" x="446.456682" y="67.322833">L 06</text><text fill="black" font-family="Yu Gothic UI" font-size="16" font-weight="bold" stroke="black" stroke-width="0" x="446.456682" y="53.149605">06</text><line x1="478.346445" x2="478.346445" y1="70.86614" y2="318.89763" /><text fill="black" font-family="Yu Gothic UI" font-size="12" stroke="black" stroke-width="0" x="481.889752" y="67.322833">M 07</text><line x1="513.7795150000001" x2="513.7795150000001" y1="70.86614" y2="318.89763" /><text fill="black" font-family="Yu Gothic UI" font-size="12" stroke="black" stroke-width="0" x="517.322822" y="67.322833">M 08</text><line x1="549.212585" x2="549.212585" y1="70.86614" y2="318.89763" /><text fill="black" font-family="Yu Gothic UI" font-size="12" stroke="black" stroke-width="0" x="552.755892" y="67.322833">J 09</text><line x1="584.645655" x2="584.645655" y1="70.86614" y2="318.89763" /><text fill="black" font-family="Yu Gothic UI" font-size="12" stroke="black" stroke-width="0" x="588.188962" y="67.322833">V 10</text><line x1="620.078725" x2="620.078725" y1="70.86614" y2="318.89763" /><rect fill="gray" height="248.03149000000002" opacity="0.7" stroke="lightgray" stroke-width="1" width="35.43307" x="620.078725" y="70.86614" /><text fill="black" font-family="Yu Gothic UI" font-size="12" stroke="black" stroke-width="0" x="623.622032" y="67.322833">S 11</text><line x1="655.511795" x2="655.511795" y1="70.86614" y2="318.89763" /><rect fill="gray" height="248.03149000000002" opacity="0.7" stroke="lightgray" stroke-width="1" width="35.43307" x="655.511795" y="70.86614" /><text fill="black" font-family="Yu Gothic UI" font-size="12" stroke="black" stroke-width="0" x="659.055102" y="67.322833">D 12</text><line x1="690.944865" x2="690.944865" y1="70.86614" y2="318.89763" /><text fill="black" font-family="Yu Gothic UI" font-size="12" stroke="black" stroke-width="0" x="694.488172" y="67.322833">L 13</text><text fill="black" font-family="Yu Gothic UI" font-size="16" font-weight="bold" stroke="black" stroke-width="0" x="694.488172" y="53.149605">07</text><line x1="726.377935" x2="726.377935" y1="70.86614" y2="318.89763" /><text fill="black" font-family="Yu Gothic UI" font-size="12" stroke="black" stroke-width="0" x="729.921242" y="67.322833">M 14</text><line x1="761.811005" x2="761.811005" y1="70.86614" y2="318.89763" /><text fill="black" font-family="Yu Gothic UI" font-size="12" stroke="black" stroke-width="0" x="765.354312" y="67.322833">M 15</text><line x1="797.2440750000001" x2="797.2440750000001" y1="70.86614" y2="318.89763" /><text fill="black" font-family="Yu Gothic UI" font-size="12" stroke="black" stroke-width="0" x="800.787382" y="67.322833">J 16</text><line x1="832.677145" x2="832.677145" y1="70.86614" y2="318.89763" /><text fill="black" font-family="Yu Gothic UI" font-size="12" stroke="black" stroke-width="0" x="836.220452" y="67.322833">V 17</text><line x1="868.110215" x2="868.110215" y1="70.86614" y2="318.89763" /><rect fill="gray" height="248.03149000000002" opacity="0.7" stroke="lightgray" stroke-width="1" width="35.43307" x="868.110215" y="70.86614" /><text fill="black" font-family="Yu Gothic UI" font-size="12" stroke="black" stroke-width="0" x="871.653522" y="67.322833">S 18</text><line x1="903.543285" x2="903.543285" y1="70.86614" y2="318.89763" /><rect fill="gray" height="248.03149000000002" opacity="0.7" stroke="lightgray" stroke-width="1" width="35.43307" x="903.543285" y="70.86614" /><text fill="black" font-family="Yu Gothic UI" font-size="12" stroke="black" stroke-width="0" x="907.086592" y="67.322833">D 19</text><line x1="938.976355" x2="938.976355" y1="70.86614" y2="318.89763" /><text fill="black" font-family="Yu Gothic UI" font-size="12" stroke="black" stroke-width="0" x="942.519662" y="67.322833">L 20</text><text fill="black" font-family="Yu Gothic UI" font-size="16" font-weight="bold" stroke="black" stroke-width="0" x="942.519662" y="53.149605">08</text><line x1="974.409425" x2="974.409425" y1="70.86614" y2="318.89763" /><text fill="black" font-family="Yu Gothic UI" font-size="12" stroke="black" stroke-width="0" x="977.952732" y="67.322833">M 21</text><line x1="1009.842495" x2="1009.842495" y1="70.86614" y2="318.89763" /><text fill="black" font-family="Yu Gothic UI" font-size="12" stroke="black" stroke-width="0" x="1013.385802" y="67.322833">M 22</text><line x1="1045.275565" x2="1045.275565" y1="70.86614" y2="318.89763" /><text fill="black" font-family="Yu Gothic UI" font-size="12" stroke="black" stroke-width="0" x="1048.818872" y="67.322833">J 23</text><line x1="1080.708635" x2="1080.708635" y1="70.86614" y2="318.89763" /><text fill="black" font-family="Yu Gothic UI" font-size="12" stroke="black" stroke-width="0" x="1084.251942" y="67.322833">V 24</text><line x1="1116.141705" x2="1116.141705" y1="70.86614" y2="318.89763" /><rect fill="gray" height="248.03149000000002" opacity="0.7" stroke="lightgray" stroke-width="1" width="35.43307" x="1116.141705" y="70.86614" /><text fill="black" font-family="Yu Gothic UI" font-size="12" stroke="black" stroke-width="0" x="1119.685012" y="67.322833">S 25</text><line x1="1151.574775" x2="1151.574775" y1="70.86614" y2="318.89763" /><rect fill="gray" height="248.03149000000002" opacity="0.7" stroke="lightgray" stroke-width="1" width="35.43307" x="1151.574775" y="70.86614" /><text fill="black" font-family="Yu Gothic UI" font-size="12" stroke="black" stroke-width="0" x="1155.118082" y="67.322833">D 26</text><line x1="1187.007845" x2="1187.007845" y1="70.86614" y2="318.89763" /><text fill="black" font-family="Yu Gothic UI" font-size="12" stroke="black" stroke-width="0" x="1190.551152" y="67.322833">L 27</text><text fill="black" font-family="Yu Gothic UI" font-size="16" font-weight="bold" stroke="black" stroke-width="0" x="1190.551152" y="53.149605">09</text><line x1="1222.4409150000001" x2="1222.4409150000001" y1="70.86614" y2="318.89763" /><text fill="black" font-family="Yu Gothic UI" font-size="12" stroke="black" stroke-width="0" x="1225.984222" y="67.322833">M 28</text><line x1="1257.873985" x2="1257.873985" y1="70.86614" y2="318.89763" /><text fill="black" font-family="Yu Gothic UI" font-size="12" stroke="black" stroke-width="0" x="1261.417292" y="67.322833">M 01</text><text fill="#800000" font-family="Yu Gothic UI" font-size="18" font-weight="bold" stroke="#800000" stroke-width="0" x="1261.417292" y="35.43307">mars</text><line x1="1293.307055" x2="1293.307055" y1="70.86614" y2="318.89763" /><text fill="black" font-family="Yu Gothic UI" font-size="12" stroke="black" stroke-width="0" x="1296.850362" y="67.322833">J 02</text><line x1="1328.740125" x2="1328.740125" y1="70.86614" y2="318.89763" /><text fill="black" font-family="Yu Gothic UI" font-size="12" stroke="black" stroke-width="0" x="1332.283432" y="67.322833">V 03</text><line x1="1364.173195" x2="1364.173195" y1="70.86614" y2="318.89763" /><rect fill="gray" height="248.03149000000002" opacity="0.7" stroke="lightgray" stroke-width="1" width="35.43307" x="1364.173195" y="70.86614" /><text fill="black" font-family="Yu Gothic UI" font-size="12" stroke="black" stroke-width="0" x="1367.716502" y="67.322833">S 04</text><line x1="1399.6062650000001" x2="1399.6062650000001" y1="70.86614" y2="318.89763" /><rect fill="gray" height="248.03149000000002" opacity="0.7" stroke="lightgray" stroke-width="1" width="35.43307" x="1399.6062650000001" y="70.86614" /><text fill="black" font-family="Yu Gothic UI" font-size="12" stroke="black" stroke-width="0" x="1403.149572" y="67.322833">D 05</text><line x1="1435.039335" x2="1435.039335" y1="70.86614" y2="318.89763" /></g><g id="hlines" stroke="lightgray"><line x1="194.881885" x2="1435.039335" y1="70.86614" y2="70.86614" /><line x1="194.881885" x2="1435.039335" y1="106.29921" y2="106.29921" /><line x1="194.881885" x2="1435.039335" y1="141.73228" y2="141.73228" /><line x1="194.881885" x2="1435.039335" y1="177.16535" y2="177.16535" /><line x1="194.881885" x2="1435.039335" y1="212.59842" y2="212.59842" /><line x1="194.881885" x2="1435.039335" y1="248.03149000000002" y2="248.03149000000002" /><line x1="194.881885" x2="1435.039335" y1="283.46456" y2="283.46456" /><line x1="194.881885" x2="1435.039335" y1="318.89763" y2="318.89763" /></g><line stroke="black" x1="194.881885" x2="1435.039335" y1="70.86614" y2="70.86614" /><line stroke="black" x1="194.881885" x2="1435.039335" y1="318.89763" y2="318.89763" /></g><g><g id="Project_A___Task_#23"><rect fill="#FFFF88" height="28.346456" opacity="0.85" stroke="#FFFF88" stroke-width="2" width="1233.070836" x="198.425192" y="74.409447" /><rect fill="#909090" height="10.629921" opacity="0.2" stroke="#FFFF88" stroke-width="1" width="1233.070836" x="198.425192" y="92.125982" /><rect fill="#0000FF" height="14.173228" opacity="0.35" stroke="#FFFF88" stroke-width="1" width="17.716535" x="198.425192" y="74.409447" /><rect fill="#000000" height="28.346456" opacity="0.2" stroke="#FFFF88" stroke-width="1" width="17.716535" x="198.425192" y="74.409447" /><rect fill="#000000" height="28.346456" opacity="0.2" stroke="#FFFF88" stroke-width="1" width="17.716535" x="1413.779493" y="74.409447" /><text fill="black" font-family="Yu Gothic UI" font-size="15" stroke="black" stroke-width="0" x="201.968499" y="88.582675">Project A / Task #23</text><text fill="purple" font-family="Yu Gothic UI" font-size="10" stroke="black" stroke-width="0" x="201.968499" y="100.9842495">PSm</text></g><g><text fill="black" font-family="Yu Gothic UI" font-size="18" stroke="black" stroke-width="0" x="10.629921" y="95.669289">Paul Smith</text></g><g><rect fill="#008000" height="28.346456" opacity="0.65" stroke="#008000" stroke-width="1" width="28.346456" x="1084.251942" y="74.409447" /></g><line stroke="black" x1="0.0" x2="1435.039335" y1="70.86614" y2="70.86614" /><g id="Project_A___Task_#12"><rect fill="#FFFF88" height="28.346456" opacity="0.85" stroke="#FFFF88" stroke-width="2" width="170.078736" x="198.425192" y="109.842517" /><rect fill="#909090" height="10.629921" opacity="0.2" stroke="#FFFF88" stroke-width="1" width="170.078736" x="198.425192" y="127.559052" /><rect fill="#0000FF" height="14.173228" opacity="0.35" stroke="#FFFF88" stroke-width="1" width="17.716535" x="198.425192" y="109.842517" /><rect fill="#0000FF" height="14.173228" opacity="0.35" stroke="#FFFF88" stroke-width="1" width="17.716535" x="350.787393" y="109.842517" /><rect fill="#000000" height="28.346456" opacity="0.2" stroke="#FFFF88" stroke-width="1" width="17.716535" x="198.425192" y="109.842517" /><text fill="black" font-family="Yu Gothic UI" font-size="15" stroke="black" stroke-width="0" x="201.968499" y="124.015745">Project A / Task #12</text><text fill="purple" font-family="Yu Gothic UI" font-size="10" stroke="black" stroke-width="0" x="201.968499" y="136.4173195">PRo</text></g><g id="Project_B___Task_#1"><rect fill="#FFFF88" height="28.346456" opacity="0.85" stroke="#FFFF88" stroke-width="2" width="737.007856" x="694.488172" y="109.842517" /><rect fill="#909090" height="10.629921" opacity="0.2" stroke="#FFFF88" stroke-width="1" width="737.007856" x="694.488172" y="127.559052" /><rect fill="#0000FF" height="14.173228" opacity="0.35" stroke="#FFFF88" stroke-width="1" width="17.716535" x="694.488172" y="109.842517" /><rect fill="#000000" height="28.346456" opacity="0.2" stroke="#FFFF88" stroke-width="1" width="17.716535" x="1413.779493" y="109.842517" /><text fill="black" font-family="Yu Gothic UI" font-size="15" stroke="black" stroke-width="0" x="698.031479" y="124.015745">Project B / Task #1</text><text fill="purple" font-family="Yu Gothic UI" font-size="10" stroke="black" stroke-width="0" x="698.031479" y="136.4173195">PRo</text></g><g><text fill="black" font-family="Yu Gothic UI" font-size="18" stroke="black" stroke-width="0" x="10.629921" y="131.102359">Peter Rodriguez</text></g><g><rect fill="#008000" height="28.346456" opacity="0.65" stroke="#008000" stroke-width="1" width="28.346456" x="446.456682" y="109.842517" /><rect fill="#008000" height="28.346456" opacity="0.65" stroke="#008000" stroke-width="1" width="28.346456" x="481.889752" y="109.842517" /><rect fill="#008000" height="28.346456" opacity="0.65" stroke="#008000" stroke-width="1" width="28.346456" x="517.322822" y="109.842517" /><rect fill="#008000" height="28.346456" opacity="0.65" stroke="#008000" stroke-width="1" width="28.346456" x="552.755892" y="109.842517" /><rect fill="#008000" height="28.346456" opacity="0.65" stroke="#008000" stroke-width="1" width="28.346456" x="588.188962" y="109.842517" /></g><line stroke="black" x1="0.0" x2="1435.039335" y1="106.29921" y2="106.29921" /><g id="Project_ABC___Task_#41"><rect fill="#FFFF88" height="28.346456" opacity="0.85" stroke="#FFFF88" stroke-width="2" width="1233.070836" x="198.425192" y="145.275587" /><rect fill="#909090" height="10.629921" opacity="0.2" stroke="#FFFF88" stroke-width="1" width="1233.070836" x="198.425192" y="162.992122" /><rect fill="#000000" height="28.346456" opacity="0.2" stroke="#FFFF88" stroke-width="1" width="17.716535" x="198.425192" y="145.275587" /><rect fill="#000000" height="28.346456" opacity="0.2" stroke="#FFFF88" stroke-width="1" width="17.716535" x="1413.779493" y="145.275587" /><text fill="black" font-family="Yu Gothic UI" font-size="15" stroke="black" stroke-width="0" x="201.968499" y="159.448815">Project ABC / Task #41</text><text fill="purple" font-family="Yu Gothic UI" font-size="10" stroke="black" stroke-width="0" x="201.968499" y="171.8503895">CDo</text></g><g><text fill="black" font-family="Yu Gothic UI" font-size="18" stroke="black" stroke-width="0" x="10.629921" y="166.535429">Christopher Douglas</text></g><g /><line stroke="black" x1="0.0" x2="1435.039335" y1="141.73228" y2="141.73228" /><g id="Quality_management"><rect fill="#FFFF88" height="28.346456" opacity="0.85" stroke="#FFFF88" stroke-width="2" width="1055.9054859999999" x="198.425192" y="180.708657" /><rect fill="#909090" height="10.629921" opacity="0.2" stroke="#FFFF88" stroke-width="1" width="1055.9054859999999" x="198.425192" y="198.425192" /><rect fill="#000000" height="28.346456" opacity="0.2" stroke="#FFFF88" stroke-width="1" width="17.716535" x="198.425192" y="180.708657" /><text fill="black" font-family="Yu Gothic UI" font-size="15" stroke="black" stroke-width="0" x="201.968499" y="194.881885">Quality management</text><text fill="purple" font-family="Yu Gothic UI" font-size="10" stroke="black" stroke-width="0" x="201.968499" y="207.2834595">OMo</text></g><g id="PMO___Quality_management"><rect fill="#FFFF88" height="28.346456" opacity="0.85" stroke="#FFFF88" stroke-width="2" width="170.078736" x="1261.417292" y="180.708657" /><rect fill="#909090" height="10.629921" opacity="0.2" stroke="#FFFF88" stroke-width="1" width="170.078736" x="1261.417292" y="198.425192" /><rect fill="#0000FF" height="14.173228" opacity="0.35" stroke="#FFFF88" stroke-width="1" width="17.716535" x="1413.779493" y="180.708657" /><rect fill="#000000" height="28.346456" opacity="0.2" stroke="#FFFF88" stroke-width="1" width="17.716535" x="1413.779493" y="180.708657" /><text fill="black" font-family="Yu Gothic UI" font-size="15" stroke="black" stroke-width="0" x="1264.960599" y="194.881885">PMO / Quality management</text><text fill="purple" font-family="Yu Gothic UI" font-size="10" stroke="black" stroke-width="0" x="1264.960599" y="207.2834595">OMo</text></g><g><text fill="black" font-family="Yu Gothic UI" font-size="18" stroke="black" stroke-width="0" x="10.629921" y="201.968499">Oliver Monroe</text></g><g /><line stroke="black" x1="0.0" x2="1435.039335" y1="177.16535" y2="177.16535" /><g id="Library_maintenance__Python_"><rect fill="#FFFF88" height="28.346456" opacity="0.85" stroke="#FFFF88" stroke-width="2" width="276.377946" x="198.425192" y="216.141727" /><rect fill="#909090" height="10.629921" opacity="0.2" stroke="#FFFF88" stroke-width="1" width="276.377946" x="198.425192" y="233.858262" /><rect fill="#000000" height="28.346456" opacity="0.2" stroke="#FFFF88" stroke-width="1" width="17.716535" x="198.425192" y="216.141727" /><text fill="black" font-family="Yu Gothic UI" font-size="15" stroke="black" stroke-width="0" x="201.968499" y="230.314955">Library maintenance (Python)</text><text fill="purple" font-family="Yu Gothic UI" font-size="10" stroke="black" stroke-width="0" x="201.968499" y="242.7165295">LCo</text></g><g id="SCADA_project"><rect fill="#00a9ff" height="28.346456" opacity="0.85" stroke="#00a9ff" stroke-width="2" width="737.007856" x="481.889752" y="216.141727" /><rect fill="#909090" height="10.629921" opacity="0.2" stroke="#00a9ff" stroke-width="1" width="737.007856" x="481.889752" y="233.858262" /><rect fill="#0000FF" height="14.173228" opacity="0.35" stroke="#00a9ff" stroke-width="1" width="17.716535" x="481.889752" y="216.141727" /><text fill="black" font-family="Yu Gothic UI" font-size="15" stroke="black" stroke-width="0" x="485.433059" y="230.314955">SCADA project</text><text fill="purple" font-family="Yu Gothic UI" font-size="10" stroke="black" stroke-width="0" x="485.433059" y="242.7165295">LCo</text></g><g id="Project_C___Task_#9"><rect fill="#fca168" height="28.346456" opacity="0.85" stroke="#fca168" stroke-width="2" width="205.511806" x="1225.984222" y="216.141727" /><rect fill="#909090" height="10.629921" opacity="0.2" stroke="#fca168" stroke-width="1" width="205.511806" x="1225.984222" y="233.858262" /><rect fill="#0000FF" height="14.173228" opacity="0.35" stroke="#fca168" stroke-width="1" width="17.716535" x="1225.984222" y="216.141727" /><rect fill="#000000" height="28.346456" opacity="0.2" stroke="#fca168" stroke-width="1" width="17.716535" x="1413.779493" y="216.141727" /><text fill="black" font-family="Yu Gothic UI" font-size="15" stroke="black" stroke-width="0" x="1229.527529" y="230.314955">Project C / Task #9</text><text fill="purple" font-family="Yu Gothic UI" font-size="10" stroke="black" stroke-width="0" x="1229.527529" y="242.7165295">LCo</text></g><g><text fill="black" font-family="Yu Gothic UI" font-size="18" stroke="black" stroke-width="0" x="10.629921" y="237.401569">Lionel Connor</text></g><g><rect fill="#008000" height="28.346456" opacity="0.65" stroke="#008000" stroke-width="1" width="28.346456" x="269.291332" y="216.141727" /></g><line stroke="black" x1="0.0" x2="1435.039335" y1="212.59842" y2="212.59842" /><g id="Project_D___Task_#5"><rect fill="#00a9ff" height="28.346456" opacity="0.85" stroke="#00a9ff" stroke-width="2" width="1233.070836" x="198.425192" y="251.574797" /><rect fill="#909090" height="10.629921" opacity="0.2" stroke="#00a9ff" stroke-width="1" width="1233.070836" x="198.425192" y="269.291332" /><rect fill="#0000FF" height="14.173228" opacity="0.35" stroke="#00a9ff" stroke-width="1" width="17.716535" x="198.425192" y="251.574797" /><rect fill="#000000" height="28.346456" opacity="0.2" stroke="#00a9ff" stroke-width="1" width="17.716535" x="198.425192" y="251.574797" /><rect fill="#000000" height="28.346456" opacity="0.2" stroke="#00a9ff" stroke-width="1" width="17.716535" x="1413.779493" y="251.574797" /><text fill="black" font-family="Yu Gothic UI" font-size="15" stroke="black" stroke-width="0" x="201.968499" y="265.748025">Project D / Task #5</text><text fill="purple" font-family="Yu Gothic UI" font-size="10" stroke="black" stroke-width="0" x="201.968499" y="278.1495995">TIr</text></g><g><text fill="black" font-family="Yu Gothic UI" font-size="18" stroke="black" stroke-width="0" x="10.629921" y="272.834639">Thomas Ironside</text></g><g><rect fill="#008000" height="28.346456" opacity="0.65" stroke="#008000" stroke-width="1" width="28.346456" x="233.858262" y="251.574797" /></g><line stroke="black" x1="0.0" x2="1435.039335" y1="248.03149000000002" y2="248.03149000000002" /><g id="Project_F___Task_#1"><rect fill="#FFFF88" height="28.346456" opacity="0.85" stroke="#FFFF88" stroke-width="2" width="914.173206" x="198.425192" y="287.007867" /><rect fill="#909090" height="10.629921" opacity="0.2" stroke="#FFFF88" stroke-width="1" width="914.173206" x="198.425192" y="304.724402" /><rect fill="#0000FF" height="14.173228" opacity="0.35" stroke="#FFFF88" stroke-width="1" width="17.716535" x="198.425192" y="287.007867" /><rect fill="#000000" height="28.346456" opacity="0.2" stroke="#FFFF88" stroke-width="1" width="17.716535" x="198.425192" y="287.007867" /><text fill="black" font-family="Yu Gothic UI" font-size="15" stroke="black" stroke-width="0" x="201.968499" y="301.18109499999997">Project F / Task #1</text><text fill="purple" font-family="Yu Gothic UI" font-size="10" stroke="black" stroke-width="0" x="201.968499" y="313.5826695">MPo</text></g><g id="Project_F___Task_#2"><rect fill="#FFFF88" height="28.346456" opacity="0.85" stroke="#FFFF88" stroke-width="2" width="240.944876" x="1190.551152" y="287.007867" /><rect fill="#909090" height="10.629921" opacity="0.2" stroke="#FFFF88" stroke-width="1" width="240.944876" x="1190.551152" y="304.724402" /><rect fill="#0000FF" height="14.173228" opacity="0.35" stroke="#FFFF88" stroke-width="1" width="17.716535" x="1190.551152" y="287.007867" /><rect fill="#000000" height="28.346456" opacity="0.2" stroke="#FFFF88" stroke-width="1" width="17.716535" x="1413.779493" y="287.007867" /><text fill="black" font-family="Yu Gothic UI" font-size="15" stroke="black" stroke-width="0" x="1194.094459" y="301.18109499999997">Project F / Task #2</text><text fill="purple" font-family="Yu Gothic UI" font-size="10" stroke="black" stroke-width="0" x="1194.094459" y="313.5826695">MPo</text></g><g><text fill="black" font-family="Yu Gothic UI" font-size="18" stroke="black" stroke-width="0" x="10.629921" y="308.267709">Matthew Potter</text></g><g /><line stroke="black" x1="0.0" x2="1435.039335" y1="283.46456" y2="283.46456" /></g></svg>