<?xml version="1.0" encoding="utf-8" ?>
<svg baseProfile="full" height="318.89763" version="1.1" width="1417.3228" xmlns="http://www.w3.org/2000/svg" xmlns:ev="http://www.w3.org/2001/xml-events" xmlns:xlink="http://www.w3.org/1999/xlink"><defs /><rect fill="white" height="318.89763" opacity="1" stroke-width="0" width="1417.3228" x="0.0" y="0.0" /><g><g id="vlines" stroke="lightgray"><line x1="0.0" x2="0.0" y1="70.86614" y2="283.46456" /><text fill="#800000" font-family="Yu Gothic UI" font-size="18" font-weight="bold" stroke="#800000" stroke-width="0" x="3.543307" y="35.43307">December</text><text fill="black" font-family="Yu Gothic UI" font-size="16" font-weight="bold" stroke="black" stroke-width="0" x="3.543307" y="53.149605">48</text><line x1="35.43307" x2="35.43307" y1="70.86614" y2="283.46456" /><text fill="black" font-family="Yu Gothic UI" font-size="16" font-weight="bold" stroke="black" stroke-width="0" x="38.976377" y="53.149605">49</text><line x1="70.86614" x2="70.86614" y1="70.86614" y2="283.46456" /><text fill="black" font-family="Yu Gothic UI" font-size="16" font-weight="bold" stroke="black" stroke-width="0" x="74.409447" y="53.149605">50</text><line x1="106.29921" x2="106.29921" y1="70.86614" y2="283.46456" /><text fill="black" font-family="Yu Gothic UI" font-size="16" font-weight="bold" stroke="black" stroke-width="0" x="109.842517" y="53.149605">51</text><line x1="141.73228" x2="141.73228" y1="70.86614" y2="283.46456" /><text fill="black" font-family="Yu Gothic UI" font-size="16" font-weight="bold" stroke="black" stroke-width="0" x="145.275587" y="53.149605">52</text><line x1="177.16535" x2="177.16535" y1="70.86614" y2="283.46456" /><text fill="#9b9b9b" font-family="Yu Gothic UI" font-size="20" font-weight="bold" stroke="#9b9b9b" stroke-width="0" x="180.708657" y="17.716535">2023</text><text fill="#800000" font-family="Yu Gothic UI" font-size="18" font-weight="bold" stroke="#800000" stroke-width="0" x="180.708657" y="35.43307">January</text><text fill="black" font-family="Yu Gothic UI" font-size="16" font-weight="bold" stroke="black" stroke-width="0" x="180.708657" y="53.149605">01</text><line x1="212.59842" x2="212.59842" y1="70.86614" y2="283.46456" /><rect fill="#76e9ff" height="248.03149000000002" opacity="0.8" stroke="lightgray" stroke-width="0" width="7.086614000000001" x="226.77164800000003" y="35.43307" /><text fill="black" font-family="Yu Gothic UI" font-size="16" font-weight="bold" stroke="black" stroke-width="0" x="216.141727" y="53.149605">02</text><line x1="248.03149000000002" x2="248.03149000000002" y1="70.86614" y2="283.46456" /><text fill="black" font-family="Yu Gothic UI" font-size="16" font-weight="bold" stroke="black" stroke-width="0" x="251.574797" y="53.149605">03</text><line x1="283.46456" x2="283.46456" y1="70.86614" y2="283.46456" /><text fill="black" font-family="Yu Gothic UI" font-size="16" font-weight="bold" stroke="black" stroke-width="0" x="287.007867" y="53.149605">04</text><line x1="318.89763" x2="318.89763" y1="70.86614" y2="283.46456" /><text fill="#800000" font-family="Yu Gothic UI" font-size="18" font-weight="bold" stroke="#800000" stroke-width="0" x="322.440937" y="35.43307">February</text><text fill="black" font-family="Yu Gothic UI" font-size="16" font-weight="bold" stroke="black" stroke-width="0" x="322.440937" y="53.149605">05</text><line x1="354.3307" x2="354.3307" y1="70.86614" y2="283.46456" /><text fill="black" font-family="Yu Gothic UI" font-size="16" font-weight="bold" stroke="black" stroke-width="0" x="357.874007" y="53.149605">06</text><line x1="389.76377" x2="389.76377" y1="70.86614" y2="283.46456" /><text fill="black" font-family="Yu Gothic UI" font-size="16" font-weight="bold" stroke="black" stroke-width="0" x="393.307077" y="53.149605">07</text><line x1="425.19684" x2="425.19684" y1="70.86614" y2="283.46456" /><text fill="black" font-family="Yu Gothic UI" font-size="16" font-weight="bold" stroke="black" stroke-width="0" x="428.740147" y="53.149605">08</text><line x1="460.62991" x2="460.62991" y1="70.86614" y2="283.46456" /><text fill="#800000" font-family="Yu Gothic UI" font-size="18" font-weight="bold" stroke="#800000" stroke-width="0" x="464.173217" y="35.43307">March</text><text fill="black" font-family="Yu Gothic UI" font-size="16" font-weight="bold" stroke="black" stroke-width="0" x="464.173217" y="53.149605">09</text><line x1="496.06298000000004" x2="496.06298000000004" y1="70.86614" y2="283.46456" /><text fill="black" font-family="Yu Gothic UI" font-size="16" font-weight="bold" stroke="black" stroke-width="0" x="499.606287" y="53.149605">10</text><line x1="531.49605" x2="531.49605" y1="70.86614" y2="283.46456" /><text fill="black" font-family="Yu Gothic UI" font-size="16" font-weight="bold" stroke="black" stroke-width="0" x="535.039357" y="53.149605">11</text><line x1="566.92912" x2="566.92912" y1="70.86614" y2="283.46456" /><text fill="black" font-family="Yu Gothic UI" font-size="16" font-weight="bold" stroke="black" stroke-width="0" x="570.472427" y="53.149605">12</text><line x1="602.36219" x2="602.36219" y1="70.86614" y2="283.46456" /><text fill="black" font-family="Yu Gothic UI" font-size="16" font-weight="bold" stroke="black" stroke-width="0" x="605.905497" y="53.149605">13</text><line x1="637.79526" x2="637.79526" y1="70.86614" y2="283.46456" /><text fill="#800000" font-family="Yu Gothic UI" font-size="18" font-weight="bold" stroke="#800000" stroke-width="0" x="641.338567" y="35.43307">April</text><text fill="black" font-family="Yu Gothic UI" font-size="16" font-weight="bold" stroke="black" stroke-width="0" x="641.338567" y="53.149605">14</text><line x1="673.22833" x2="673.22833" y1="70.86614" y2="283.46456" /><text fill="black" font-family="Yu Gothic UI" font-size="16" font-weight="bold" stroke="black" stroke-width="0" x="676.7716369999999" y="53.149605">15</text><line x1="708.6614" x2="708.6614" y1="70.86614" y2="283.46456" /><text fill="black" font-family="Yu Gothic UI" font-size="16" font-weight="bold" stroke="black" stroke-width="0" x="712.204707" y="53.149605">16</text><line x1="744.09447" x2="744.09447" y1="70.86614" y2="283.46456" /><text fill="black" font-family="Yu Gothic UI" font-size="16" font-weight="bold" stroke="black" stroke-width="0" x="747.637777" y="53.149605">17</text><line x1="779.52754" x2="779.52754" y1="70.86614" y2="283.46456" /><text fill="#800000" font-family="Yu Gothic UI" font-size="18" font-weight="bold" stroke="#800000" stroke-width="0" x="783.070847" y="35.43307">May</text><text fill="black" font-family="Yu Gothic UI" font-size="16" font-weight="bold" stroke="black" stroke-width="0" x="783.070847" y="53.149605">18</text><line x1="814.96061" x2="814.96061" y1="70.86614" y2="283.46456" /><text fill="black" font-family="Yu Gothic UI" font-size="16" font-weight="bold" stroke="black" stroke-width="0" x="818.503917" y="53.149605">19</text><line x1="850.39368" x2="850.39368" y1="70.86614" y2="283.46456" /><text fill="black" font-family="Yu Gothic UI" font-size="16" font-weight="bold" stroke="black" stroke-width="0" x="853.936987" y="53.149605">20</text><line x1="885.8267500000001" x2="885.8267500000001" y1="70.86614" y2="283.46456" /><text fill="black" font-family="Yu Gothic UI" font-size="16" font-weight="bold" stroke="black" stroke-width="0" x="889.370057" y="53.149605">21</text><line x1="921.25982" x2="921.25982" y1="70.86614" y2="283.46456" /><text fill="#800000" font-family="Yu Gothic UI" font-size="18" font-weight="bold" stroke="#800000" stroke-width="0" x="924.803127" y="35.43307">June</text><text fill="black" font-family="Yu Gothic UI" font-size="16" font-weight="bold" stroke="black" stroke-width="0" x="924.803127" y="53.149605">22</text><line x1="956.69289" x2="956.69289" y1="70.86614" y2="283.46456" /><text fill="black" font-family="Yu Gothic UI" font-size="16" font-weight="bold" stroke="black" stroke-width="0" x="960.236197" y="53.149605">23</text><line x1="992.1259600000001" x2="992.1259600000001" y1="70.86614" y2="283.46456" /><text fill="black" font-family="Yu Gothic UI" font-size="16" font-weight="bold" stroke="black" stroke-width="0" x="995.669267" y="53.149605">24</text><line x1="1027.5590300000001" x2="1027.5590300000001" y1="70.86614" y2="283.46456" /><text fill="black" font-family="Yu Gothic UI" font-size="16" font-weight="bold" stroke="black" stroke-width="0" x="1031.102337" y="53.149605">25</text><line x1="1062.9921" x2="1062.9921" y1="70.86614" y2="283.46456" /><text fill="black" font-family="Yu Gothic UI" font-size="16" font-weight="bold" stroke="black" stroke-width="0" x="1066.535407" y="53.149605">26</text><line x1="1098.42517" x2="1098.42517" y1="70.86614" y2="283.46456" /><text fill="#800000" font-family="Yu Gothic UI" font-size="18" font-weight="bold" stroke="#800000" stroke-width="0" x="1101.968477" y="35.43307">July</text><text fill="black" font-family="Yu Gothic UI" font-size="16" font-weight="bold" stroke="black" stroke-width="0" x="1101.968477" y="53.149605">27</text><line x1="1133.85824" x2="1133.85824" y1="70.86614" y2="283.46456" /><text fill="black" font-family="Yu Gothic UI" font-size="16" font-weight="bold" stroke="black" stroke-width="0" x="1137.401547" y="53.149605">28</text><line x1="1169.29131" x2="1169.29131" y1="70.86614" y2="283.46456" /><text fill="black" font-family="Yu Gothic UI" font-size="16" font-weight="bold" stroke="black" stroke-width="0" x="1172.834617" y="53.149605">29</text><line x1="1204.72438" x2="1204.72438" y1="70.86614" y2="283.46456" /><text fill="black" font-family="Yu Gothic UI" font-size="16" font-weight="bold" stroke="black" stroke-width="0" x="1208.267687" y="53.149605">30</text><line x1="1240.15745" x2="1240.15745" y1="70.86614" y2="283.46456" /><text fill="#800000" font-family="Yu Gothic UI" font-size="18" font-weight="bold" stroke="#800000" stroke-width="0" x="1243.700757" y="35.43307">August</text><text fill="black" font-family="Yu Gothic UI" font-size="16" font-weight="bold" stroke="black" stroke-width="0" x="1243.700757" y="53.149605">31</text><line x1="1275.59052" x2="1275.59052" y1="70.86614" y2="283.46456" /><text fill="black" font-family="Yu Gothic UI" font-size="16" font-weight="bold" stroke="black" stroke-width="0" x="1279.1338269999999" y="53.149605">32</text><line x1="1311.02359" x2="1311.02359" y1="70.86614" y2="283.46456" /><text fill="black" font-family="Yu Gothic UI" font-size="16" font-weight="bold" stroke="black" stroke-width="0" x="1314.566897" y="53.149605">33</text><line x1="1346.45666" x2="1346.45666" y1="70.86614" y2="283.46456" /><text fill="black" font-family="Yu Gothic UI" font-size="16" font-weight="bold" stroke="black" stroke-width="0" x="1349.999967" y="53.149605">34</text><line x1="1381.88973" x2="1381.88973" y1="70.86614" y2="283.46456" /><text fill="black" font-family="Yu Gothic UI" font-size="16" font-weight="bold" stroke="black" stroke-width="0" x="1385.433037" y="53.149605">35</text><line x1="1417.3228" x2="1417.3228" y1="70.86614" y2="283.46456" /></g><g id="hlines" stroke="lightgray"><line x1="0.0" x2="1417.3228" y1="70.86614" y2="70.86614" /><line x1="0.0" x2="1417.3228" y1="106.29921" y2="106.29921" /><line x1="0.0" x2="1417.3228" y1="141.73228" y2="141.73228" /><line x1="0.0" x2="1417.3228" y1="177.16535" y2="177.16535" /><line x1="0.0" x2="1417.3228" y1="212.59842" y2="212.59842" /><line x1="0.0" x2="1417.3228" y1="248.03149000000002" y2="248.03149000000002" /><line x1="0.0" x2="1417.3228" y1="283.46456" y2="283.46456" /></g><line stroke="black" x1="0.0" x2="1417.3228" y1="70.86614" y2="70.86614" /><line stroke="black" x1="0.0" x2="1417.3228" y1="283.46456" y2="283.46456" /></g><g><g><g><g><text fill="black" font-family="Yu Gothic UI" font-size="18" stroke="black" stroke-width="0" x="31.889763" y="95.669289">ABC</text><rect fill="#e47172" height="49.606297999999995" opacity="0.8" stroke="#e47172" stroke-width="0" width="7.086614000000001" x="24.0944876" y="88.582675" /><g><g id="ABC"><rect fill="#e47172" height="28.346456" opacity="0.85" stroke="#e47172" stroke-width="2" width="1233.070836" x="180.708657" y="109.842517" /><rect fill="#909090" height="10.629921" opacity="0.2" stroke="#e47172" stroke-width="1" width="1233.070836" x="180.708657" y="127.559052" /><rect fill="#F08000" height="10.629921" opacity="0.35" stroke="#e47172" stroke-width="1" width="0.0" x="180.708657" y="127.559052" /><text fill="black" font-family="Yu Gothic UI" font-size="15" stroke="black" stroke-width="0" x="184.251964" y="124.015745">ABC</text><text fill="#9b9b9b" font-family="Yu Gothic UI" font-size="12" stroke="#9b9b9b" stroke-width="0" style="text-anchor:end" x="177.16535" y="138.188973">02/01/23</text><text fill="#9b9b9b" font-family="Yu Gothic UI" font-size="12" stroke="#9b9b9b" stroke-width="0" x="1417.3228" y="138.188973">30/08/23</text></g><g><line stroke="gray" stroke-dasharray="15,10" stroke-width="1" x1="71.43307" x2="1020.8897300000001" y1="88.582675" y2="88.582675" /><rect fill="white" height="82" opacity="0.8" stroke="#e47172" stroke-width="3" width="361" x="1020.8897300000001" y="88.582675" /><text font-family="Yu Gothic UI" font-size="18" font-weight="bold" x="1025.88973" y="109.082675">ABC</text><text font-family="Yu Gothic UI" font-size="18" font-weight="normal" x="1025.88973" y="127.082675">haha hahaaha hahaah ahaaha ahahaa haa</text><text font-family="Yu Gothic UI" font-size="18" font-weight="normal" x="1025.88973" y="145.082675">hahaaha ahaha haaha haahaha haaha hahaa</text><text font-family="Yu Gothic UI" font-size="18" font-weight="normal" x="1025.88973" y="163.082675">anahaha haa ha ha</text></g></g></g><g><text fill="black" font-family="Yu Gothic UI" font-size="18" stroke="black" stroke-width="0" x="31.889763" y="201.968499">F</text><rect fill="#53ccff" height="85.039368" opacity="0.8" stroke="#53ccff" stroke-width="0" width="7.086614000000001" x="24.0944876" y="194.881885" /><g><g id="F"><rect fill="#53ccff" height="28.346456" opacity="0.85" stroke="#53ccff" stroke-width="2" width="524.409436" x="3.543307" y="216.141727" /><rect fill="#909090" height="10.629921" opacity="0.2" stroke="#53ccff" stroke-width="1" width="524.409436" x="3.543307" y="233.858262" /><rect fill="#000000" height="28.346456" opacity="0.2" stroke="#53ccff" stroke-width="1" width="17.716535" x="3.543307" y="216.141727" /><rect fill="#F08000" height="10.629921" opacity="0.35" stroke="#53ccff" stroke-width="1" width="0.0" x="3.543307" y="233.858262" /><text fill="black" font-family="Yu Gothic UI" font-size="15" stroke="black" stroke-width="0" x="7.086614" y="230.314955">F</text><text fill="#9b9b9b" font-family="Yu Gothic UI" font-size="12" stroke="#9b9b9b" stroke-width="0" style="text-anchor:end" x="0.0" y="244.488183">12/05/22</text><text fill="#9b9b9b" font-family="Yu Gothic UI" font-size="12" stroke="#9b9b9b" stroke-width="0" x="531.49605" y="244.488183">07/03/23</text></g><g id="Milestone"><polygon fill="#FF3030" opacity="0.85" points="442.913375,255.118104 453.543296,265.748025 442.913375,276.377946 432.283454,265.748025" stroke="#FF3030" stroke-width="2" /><text fill="black" font-family="Yu Gothic UI" font-size="15" stroke="black" stroke-width="0" x="460.62991" y="265.748025">Milestone</text><text fill="#9b9b9b" font-family="Yu Gothic UI" font-size="12" stroke="#9b9b9b" stroke-width="0" x="460.62991" y="279.921253">22/02/23</text></g><g><line stroke="gray" stroke-dasharray="15,10" stroke-width="1" x1="47.43307" x2="1359.88973" y1="194.881885" y2="194.881885" /><rect fill="white" height="28" opacity="0.8" stroke="#53ccff" stroke-width="3" width="22" x="1359.88973" y="194.881885" /><text font-family="Yu Gothic UI" font-size="18" font-weight="bold" x="1364.88973" y="215.381885">F</text></g></g></g></g></g><g><g><g /></g><g><g /><g /><g /><g /><g /><g /></g></g></g></svg>