<?xml version="1.0" ?>

<!-- Uploaded to: SVG Repo, www.svgrepo.com, Generator: SVG Repo Mixer Tools -->
<svg width="800px" height="800px" viewBox="0 0 32 32" id="svg5" version="1.1" xmlns="http://www.w3.org/2000/svg" xmlns:svg="http://www.w3.org/2000/svg">

<defs id="defs2"/>

<g id="layer1" transform="translate(36,-196)">

<path d="m -31,199.00586 c -1.644701,0 -3,1.3553 -3,3 v 21 c 0,1.6447 1.355299,3 3,3 h 22 c 1.6447011,0 3,-1.3553 3,-3 v -21 c 0,-1.6447 -1.3552989,-3 -3,-3 z m 0,2 h 22 c 0.5712967,0 1,0.4287 1,1 v 21 c 0,0.5713 -0.4287033,1 -1,1 h -22 c -0.571297,0 -1,-0.4287 -1,-1 v -21 c 0,-0.5713 0.428703,-1 1,-1 z" id="rect25665" style="color:#000000;fill:#000000;fill-rule:evenodd;stroke-linecap:round;stroke-linejoin:round;stroke-miterlimit:4.1;-inkscape-stroke:none"/>

<path d="m -33,206.00586 a 1,1 0 0 0 -1,1 1,1 0 0 0 1,1 h 26 a 1,1 0 0 0 1,-1 1,1 0 0 0 -1,-1 z" id="path25667" style="color:#000000;fill:#000000;fill-rule:evenodd;stroke-linecap:round;stroke-linejoin:round;stroke-miterlimit:4.1;-inkscape-stroke:none"/>

<path d="m -29,197.00586 a 1,1 0 0 0 -1,1 v 5 a 1,1 0 0 0 1,1 1,1 0 0 0 1,-1 v -5 a 1,1 0 0 0 -1,-1 z" id="path25669" style="color:#000000;fill:#000000;fill-rule:evenodd;stroke-linecap:round;stroke-linejoin:round;stroke-miterlimit:4.1;-inkscape-stroke:none"/>

<path d="m -20,197.00586 a 1,1 0 0 0 -1,1 v 5 a 1,1 0 0 0 1,1 1,1 0 0 0 1,-1 v -5 a 1,1 0 0 0 -1,-1 z" id="path25671" style="color:#000000;fill:#000000;fill-rule:evenodd;stroke-linecap:round;stroke-linejoin:round;stroke-miterlimit:4.1;-inkscape-stroke:none"/>

<path d="m -11,197.00586 a 1,1 0 0 0 -1,1 v 5 a 1,1 0 0 0 1,1 1,1 0 0 0 1,-1 v -5 a 1,1 0 0 0 -1,-1 z" id="path25673" style="color:#000000;fill:#000000;fill-rule:evenodd;stroke-linecap:round;stroke-linejoin:round;stroke-miterlimit:4.1;-inkscape-stroke:none"/>

<path d="m -14,210.00586 c -1.090702,0 -2,0.9093 -2,2 v 2 c 0,1.0907 0.909298,2 2,2 h 2 c 1.090702,0 2,-0.9093 2,-2 v -2 c 0,-1.0907 -0.909298,-2 -2,-2 z m 0,2 h 2 v 2 h -2 z" id="rect25677" style="color:#000000;fill:#000000;fill-rule:evenodd;stroke-linecap:round;stroke-linejoin:round;stroke-miterlimit:4.1;-inkscape-stroke:none"/>

<path d="m -21,217.00586 c -1.090702,0 -2,0.9093 -2,2 v 2 c 0,1.0907 0.909298,2 2,2 h 2 c 1.090702,0 2,-0.9093 2,-2 v -2 c 0,-1.0907 -0.909298,-2 -2,-2 z m 0,2 h 2 v 2 h -2 z" id="rect25679" style="color:#000000;fill:#000000;fill-rule:evenodd;stroke-linecap:round;stroke-linejoin:round;stroke-miterlimit:4.1;-inkscape-stroke:none"/>

<path d="m -28,217.00586 c -1.090702,0 -2,0.9093 -2,2 v 2 c 0,1.0907 0.909298,2 2,2 h 2 c 1.090702,0 2,-0.9093 2,-2 v -2 c 0,-1.0907 -0.909298,-2 -2,-2 z m 0,2 h 2 v 2 h -2 z" id="rect25681" style="color:#000000;fill:#000000;fill-rule:evenodd;stroke-linecap:round;stroke-linejoin:round;stroke-miterlimit:4.1;-inkscape-stroke:none"/>

<path d="m -14,217.00586 c -1.090702,0 -2,0.9093 -2,2 v 2 c 0,1.0907 0.909298,2 2,2 h 2 c 1.090702,0 2,-0.9093 2,-2 v -2 c 0,-1.0907 -0.909298,-2 -2,-2 z m 0,2 h 2 v 2 h -2 z" id="rect25683" style="color:#000000;fill:#000000;fill-rule:evenodd;stroke-linecap:round;stroke-linejoin:round;stroke-miterlimit:4.1;-inkscape-stroke:none"/>

<path d="m -25.585937,210.5918 a 1,1 0 0 0 -0.707032,0.29297 l -2.828125,2.82812 a 1,1 0 0 0 0,1.41406 1,1 0 0 0 1.414063,0 l 2.828125,-2.82812 a 1,1 0 0 0 0,-1.41406 1,1 0 0 0 -0.707031,-0.29297 z" id="path25685" style="color:#000000;fill:#000000;fill-rule:evenodd;stroke-linecap:round;stroke-linejoin:round;stroke-miterlimit:4.1;-inkscape-stroke:none"/>

<path d="m -28.414062,210.5918 a 1,1 0 0 0 -0.707032,0.29297 1,1 0 0 0 0,1.41406 l 2.828125,2.82812 a 1,1 0 0 0 1.414063,0 1,1 0 0 0 0,-1.41406 l -2.828125,-2.82812 a 1,1 0 0 0 -0.707031,-0.29297 z" id="path25687" style="color:#000000;fill:#000000;fill-rule:evenodd;stroke-linecap:round;stroke-linejoin:round;stroke-miterlimit:4.1;-inkscape-stroke:none"/>

<path d="m -19,210.5918 a 1,1 0 0 0 -0.707031,0.29297 l -2.828125,2.82812 a 1,1 0 0 0 0,1.41406 1,1 0 0 0 1.414062,0 l 2.828125,-2.82812 a 1,1 0 0 0 0,-1.41406 A 1,1 0 0 0 -19,210.5918 Z" id="path25689" style="color:#000000;fill:#000000;fill-rule:evenodd;stroke-linecap:round;stroke-linejoin:round;stroke-miterlimit:4.1;-inkscape-stroke:none"/>

<path d="m -21.828125,210.5918 a 1,1 0 0 0 -0.707031,0.29297 1,1 0 0 0 0,1.41406 l 2.828125,2.82812 a 1,1 0 0 0 1.414062,0 1,1 0 0 0 0,-1.41406 l -2.828125,-2.82812 a 1,1 0 0 0 -0.707031,-0.29297 z" id="path25691" style="color:#000000;fill:#000000;fill-rule:evenodd;stroke-linecap:round;stroke-linejoin:round;stroke-miterlimit:4.1;-inkscape-stroke:none"/>

</g>

</svg>