<?xml version="1.0" encoding="UTF-8" standalone="no"?>
<svg
   role="img"
   focusable="false"
   aria-hidden="true"
   viewBox="0 0 14 14"
   version="1.1"
   id="svg4"
   sodipodi:docname="collapse.svg"
   inkscape:version="1.1 (c68e22c387, 2021-05-23)"
   xmlns:inkscape="http://www.inkscape.org/namespaces/inkscape"
   xmlns:sodipodi="http://sodipodi.sourceforge.net/DTD/sodipodi-0.dtd"
   xmlns="http://www.w3.org/2000/svg"
   xmlns:svg="http://www.w3.org/2000/svg">
  <defs
     id="defs8" />
  <sodipodi:namedview
     id="namedview6"
     pagecolor="#ffffff"
     bordercolor="#666666"
     borderopacity="1.0"
     inkscape:pageshadow="2"
     inkscape:pageopacity="0.0"
     inkscape:pagecheckerboard="0"
     showgrid="false"
     inkscape:zoom="59.428571"
     inkscape:cx="6.9915865"
     inkscape:cy="7.0084135"
     inkscape:window-width="1920"
     inkscape:window-height="1017"
     inkscape:window-x="-8"
     inkscape:window-y="-8"
     inkscape:window-maximized="1"
     inkscape:current-layer="svg4" />
  <path
     d="M6.491328 7.000195H2.931105c-.137727 0-.256921.0503-.357583.15109-.100662.10057-.150992.21986-.150992.35759 0 .13772.05033.25692.150992.35758l1.144344 1.14424-2.63837 2.63847c-.05306.053-.0795.11393-.0795.18269 0 .069.02643.12993.0795.18289l.905858.90576c.05306.053.113927.0794.18279.0794.06886 0 .129827-.0264.182791-.0794l2.638369-2.63837 1.144344 1.14435c.100661.10056.219856.15099.357582.15099.137825 0 .257019-.0504.357681-.15099.100662-.10057.150992-.21986.150992-.35759v-3.56022c0-.13773-.05033-.25702-.150894-.35748-.100662-.10067-.219856-.151-.357681-.151zm6.508673-4.83185c0-.0689-.02653-.12973-.07959-.18279l-.905955-.90596c-.05296-.0531-.113829-.0795-.182693-.0795-.06896 0-.129826.0265-.18279.0795l-2.638565 2.63837-1.144148-1.14434c-.100564-.10067-.219954-.151-.357681-.151-.137727 0-.256921.0503-.357583.151-.100661.10066-.150992.21985-.150992.35758v3.56022c0 .13783.05033.25702.150992.35768.100662.10066.219856.151.357583.151h3.560223c.137727 0 .257117-.0503.357681-.151.100662-.10066.15109-.21985.15109-.35768 0-.13772-.05043-.25692-.15109-.35758l-1.144344-1.14434 2.638565-2.63837c.05277-.053.0793-.11393.0793-.18279z"
     id="path2"
     style="fill:#0000ff" />
</svg>
