<!DOCTYPE svg PUBLIC "-//W3C//DTD SVG 1.1//EN" "http://www.w3.org/Graphics/SVG/1.1/DTD/svg11.dtd">
<!-- Uploaded to: SVG Repo, www.svgrepo.com, Transformed by: SVG Repo Mixer Tools -->
<svg width="800px" height="800px" viewBox="0 0 16 16" fill="none" xmlns="http://www.w3.org/2000/svg" stroke="#0000FF" style="--darkreader-inline-stroke: var(--darkreader-text-0000ff, #337dff);" data-darkreader-inline-stroke="">
<g id="SVGRepo_bgCarrier" stroke-width="0"/>
<g id="SVGRepo_tracerCarrier" stroke-linecap="round" stroke-linejoin="round"/>
<g id="SVGRepo_iconCarrier"> <path d="M9.75 3.25C9.75 4.2165 8.9665 5 8 5C7.0335 5 6.25 4.2165 6.25 3.25C6.25 2.2835 7.0335 1.5 8 1.5C8.9665 1.5 9.75 2.2835 9.75 3.25Z" fill="#0000FF" style="--darkreader-inline-fill: #0000cc;" data-darkreader-inline-fill=""/> <path d="M1 9.5V6.5L15 6.5V9.5L1 9.5Z" fill="#0000FF" style="--darkreader-inline-fill: var(--darkreader-background-0000ff, #0000cc);" data-darkreader-inline-fill=""/> <path d="M8 14.5C8.9665 14.5 9.75 13.7165 9.75 12.75C9.75 11.7835 8.9665 11 8 11C7.0335 11 6.25 11.7835 6.25 12.75C6.25 13.7165 7.0335 14.5 8 14.5Z" fill="#0000FF" style="--darkreader-inline-fill: var(--darkreader-background-0000ff, #0000cc);" data-darkreader-inline-fill=""/> </g>
</svg>