<?xml version="1.0" encoding="UTF-8" standalone="no"?>
<svg
   role="img"
   focusable="false"
   aria-hidden="true"
   viewBox="0 0 14 14"
   version="1.1"
   id="svg4"
   sodipodi:docname="expand.svg"
   inkscape:version="1.1 (c68e22c387, 2021-05-23)"
   xmlns:inkscape="http://www.inkscape.org/namespaces/inkscape"
   xmlns:sodipodi="http://sodipodi.sourceforge.net/DTD/sodipodi-0.dtd"
   xmlns="http://www.w3.org/2000/svg"
   xmlns:svg="http://www.w3.org/2000/svg">
  <defs
     id="defs8" />
  <sodipodi:namedview
     id="namedview6"
     pagecolor="#ffffff"
     bordercolor="#666666"
     borderopacity="1.0"
     inkscape:pageshadow="2"
     inkscape:pageopacity="0.0"
     inkscape:pagecheckerboard="0"
     showgrid="false"
     inkscape:zoom="59.428571"
     inkscape:cx="6.9915865"
     inkscape:cy="7.0084135"
     inkscape:window-width="1920"
     inkscape:window-height="1017"
     inkscape:window-x="-8"
     inkscape:window-y="-8"
     inkscape:window-maximized="1"
     inkscape:current-layer="svg4" />
  <path
     d="M12.851703 1.14844c-.09886-.099-.21614-.14844-.351539-.14844H9.0001119c-.135399 0-.252483.0495-.35154.14844-.09886.099-.148344.21614-.148344.35154 0 .1354.04948.25268.148344.35154l1.124908 1.125-2.593779 2.59378c-.05207.0522-.07815.112-.07815.1797s.02608.12763.07815.1797l.890644.89065c.05207.0521.111905.0781.179701.0781.0677 0 .127536-.026.179605-.0781l2.5938751-2.59378 1.124811 1.12491c.09906.099.216332.14853.351731.14853.135399 0 .252579-.0496.351539-.14853.09887-.0989.148345-.21614.148345-.35154V1.49988c.000096-.13549-.0491-.25248-.148249-.35144zM5.9298469 7.17956c-.05207-.0521-.112001-.0781-.179701-.0781s-.127632.026-.179701.0781l-2.593779 2.59378-1.125003-1.1251c-.09896-.0988-.216044-.14835-.351539-.14835-.135495 0-.252675.0496-.351635.14835-.09896.099-.148441.21633-.148441.35173v3.50005c0 .1354.04948.25258.148441.35154.09906.0989.216236.14844.351635.14844h3.500052c.135399 0 .252579-.0496.351539-.14844.09896-.099.148441-.21614.148441-.35154 0-.1354-.04948-.25268-.148441-.35173l-1.125003-1.12481 2.593779-2.59388c.05207-.0521.07805-.1119.07805-.1797 0-.0677-.02608-.12753-.07805-.1797l-.890644-.89064z"
     id="path2" />
  <path
     style="fill:#ffcc00;stroke:#cc3535;stroke-width:0"
     d="M 8.1274038,6.8502061 C 8.0444468,6.7978169 7.1460742,5.8849357 7.1269944,5.8336401 7.0981747,5.7561591 7.1065358,5.6984521 7.1580526,5.61928 7.1848252,5.5781351 7.7867036,4.9653277 8.49556,4.2574856 L 9.7843898,2.9705003 9.1718752,2.3560434 C 8.5700726,1.7523325 8.5588593,1.7398463 8.5306916,1.6420815 8.4645497,1.412515 8.5712759,1.1694904 8.7865183,1.0595424 l 0.08127,-0.041514 h 1.8846157 1.884615 l 0.09124,0.050481 c 0.100323,0.055505 0.204801,0.1745806 0.239704,0.2731974 0.01815,0.05129 0.02242,0.4154927 0.02242,1.9143026 0,1.8464578 -8.5e-5,1.8511478 -0.03543,1.9275377 -0.08532,0.1843971 -0.228794,0.2861563 -0.420838,0.2984808 -0.223046,0.014314 -0.205235,0.027436 -0.894226,-0.6588326 L 11.029779,4.2154949 9.7300337,5.5126775 C 9.0151738,6.226128 8.408444,6.8261392 8.3817452,6.8460358 c -0.0626,0.046651 -0.1839242,0.04864 -0.2543414,0.00417 z"
     id="path101" />
  <path
     style="fill:#ffcc00;stroke:#cc3535;stroke-width:0"
     d="M 1.3525865,12.967154 C 1.2106017,12.916415 1.1017731,12.815555 1.038824,12.676364 1.011663,12.616306 1.0096154,12.48143 1.0096154,10.752404 V 8.8930288 L 1.04558,8.8152481 C 1.09571,8.7068327 1.189894,8.6081613 1.2916516,8.5574533 c 0.1119818,-0.055803 0.2855737,-0.059415 0.3994542,-0.00831 0.056472,0.025342 0.2286471,0.1867065 0.6773071,0.6347826 L 2.9699989,9.7847274 4.2698551,8.4874336 C 4.9847762,7.773922 5.5915561,7.1738608 5.6182549,7.1539641 5.6756776,7.1111713 5.792032,7.1053931 5.8608116,7.1419186 5.9305324,7.178944 6.8530007,8.1125733 6.8730062,8.1663599 6.9018252,8.2438417 6.893464,8.3015482 6.8419474,8.38072 6.8151748,8.4218649 6.2132964,9.0346723 5.5044401,9.7425144 L 4.2156102,11.0295 4.8281248,11.643957 c 0.6021812,0.60409 0.6129991,0.616138 0.6412402,0.714156 0.054562,0.18937 -0.00347,0.380177 -0.1566304,0.514993 -0.1412776,0.124358 -0.017412,0.117364 -2.0639293,0.11654 -1.4565694,-5.85e-4 -1.847907,-0.0052 -1.8962188,-0.02249 z"
     id="path140" />
</svg>
