<?xml version="1.0" encoding="UTF-8" standalone="no"?>
<svg
   role="img"
   focusable="false"
   aria-hidden="true"
   viewBox="0 0 10 10"
   version="1.1"
   id="svg44"
   sodipodi:docname="invalid.svg"
   width="10"
   height="10"
   inkscape:version="1.1 (c68e22c387, 2021-05-23)"
   xmlns:inkscape="http://www.inkscape.org/namespaces/inkscape"
   xmlns:sodipodi="http://sodipodi.sourceforge.net/DTD/sodipodi-0.dtd"
   xmlns="http://www.w3.org/2000/svg"
   xmlns:svg="http://www.w3.org/2000/svg">
  <defs
     id="defs48" />
  <sodipodi:namedview
     id="namedview46"
     pagecolor="#ffffff"
     bordercolor="#666666"
     borderopacity="1.0"
     inkscape:pageshadow="2"
     inkscape:pageopacity="0.0"
     inkscape:pagecheckerboard="0"
     showgrid="false"
     inkscape:zoom="59.428571"
     inkscape:cx="6.9915865"
     inkscape:cy="4.3161058"
     inkscape:window-width="1920"
     inkscape:window-height="1017"
     inkscape:window-x="-8"
     inkscape:window-y="-8"
     inkscape:window-maximized="1"
     inkscape:current-layer="svg44" />
  <path
     fill="#ffc107"
     d="m 0.3640112,8.0838125 4.114224,-6.885611 c 0.228568,-0.371423 0.771417,-0.371423 0.971414,0 l 4.1142238,6.885611 c 0.228568,0.371423 -0.05714,0.85713 -0.485707,0.85713 H 0.8497182 c -0.428565,0 -0.714275,-0.485707 -0.485707,-0.85713 z"
     id="path14"
     style="stroke-width:0.28571" />
  <path
     d="m 4.5068062,7.4838215 c 0,-0.05714 0,-0.114284 0.028571,-0.171426 0.028571,-0.05714 0.057142,-0.08571 0.085713,-0.142855 0.028571,-0.05714 0.085713,-0.05714 0.142855,-0.08571 0.057142,-0.02857 0.114284,-0.02857 0.171426,-0.02857 0.057142,0 0.142855,0 0.199997,0.02857 0.057142,0.02857 0.114284,0.05714 0.142855,0.08571 0.028571,0.02857 0.057142,0.08571 0.085713,0.142855 0.028571,0.05714 0.028571,0.114284 0.028571,0.171426 0,0.05714 0,0.114284 -0.028571,0.171426 -0.028571,0.05714 -0.057142,0.08571 -0.085713,0.142855 -0.028571,0.05714 -0.085713,0.05714 -0.142855,0.08571 -0.057142,0.02857 -0.114284,0.02857 -0.199997,0.02857 -0.085713,0 -0.142855,0 -0.171426,-0.02857 -0.028571,-0.02857 -0.114284,-0.05714 -0.142855,-0.08571 -0.028571,-0.02857 -0.057142,-0.08571 -0.085713,-0.142855 -0.028571,-0.05714 -0.028571,-0.114284 -0.028571,-0.171426 z m 0.799988,-0.885701 h -0.657133 l -0.114284,-2.799958 h 0.85713 z"
     id="path16"
     style="stroke-width:0.28571;fill:#ffffff" />
</svg>
