<?xml version="1.0" encoding="UTF-8" standalone="no"?>
<svg
   role="img"
   focusable="false"
   aria-hidden="true"
   viewBox="0 0 14 14"
   version="1.1"
   id="svg6"
   sodipodi:docname="move_down.svg"
   inkscape:version="1.1 (c68e22c387, 2021-05-23)"
   xmlns:inkscape="http://www.inkscape.org/namespaces/inkscape"
   xmlns:sodipodi="http://sodipodi.sourceforge.net/DTD/sodipodi-0.dtd"
   xmlns:xlink="http://www.w3.org/1999/xlink"
   xmlns="http://www.w3.org/2000/svg"
   xmlns:svg="http://www.w3.org/2000/svg">
  <defs
     id="defs10">
    <clipPath
       clipPathUnits="userSpaceOnUse"
       id="clipPath119">
      <use
         x="0"
         y="0"
         xlink:href="#g115"
         id="use121" />
    </clipPath>
  </defs>
  <sodipodi:namedview
     id="namedview8"
     pagecolor="#ffffff"
     bordercolor="#666666"
     borderopacity="1.0"
     inkscape:pageshadow="2"
     inkscape:pageopacity="0.0"
     inkscape:pagecheckerboard="0"
     showgrid="false"
     inkscape:zoom="59.428571"
     inkscape:cx="6.9915866"
     inkscape:cy="6.6213943"
     inkscape:window-width="1920"
     inkscape:window-height="1017"
     inkscape:window-x="-8"
     inkscape:window-y="-8"
     inkscape:window-maximized="1"
     inkscape:current-layer="svg6" />
  <g
     id="g117"
     clip-path="url(#clipPath119)">
    <g
       inkscape:label="Clip"
       id="g115">
      <path
         d="M.37890625 0C.16880625 0 0 .23539063 0 .52539062V5.3183594c0 .2901.16880625.5234375.37890625.5234375H13.621094c.21 0 .378906-.2333375.378906-.5234375V.52539062C14 .23539062 13.831094 0 13.621094 0H.37890625zm.77929685 1.2109375H4.375v3.4199219H1.1582031V1.2109375zm4.2851563 0h3.2148437v3.4199219H5.4433594V1.2109375zm4.2832031 0h3.2148435v3.4199219H9.7265625V1.2109375z"
         id="path2" />
    </g>
  </g>
  <path
     fill="green"
     d="M3.0001 9.9681q0-.264.1915-.4658l.3882-.3882q.1966-.1965.4709-.1965.2795 0 .4658.1965l1.5217 1.5164V6.9869q0-.2691.194-.4372.1941-.1683.4684-.1683h.6625q.2743 0 .4684.1683.1941.1681.1941.4372v3.6436l1.5216-1.5164q.1863-.1965.4658-.1965.2795 0 .4658.1965l.3882.3882q.1966.1967.1966.4658 0 .2742-.1966.471l-3.3693 3.3692q-.1812.1916-.4658.1916-.2795 0-.471-.1916l-3.3693-3.3692q-.1915-.2019-.1915-.471z"
     id="path4" />
  <rect
     style="fill:#2a82da;stroke:#cc3535;stroke-width:0;fill-opacity:1"
     id="rect145"
     width="11.783203"
     height="3.4199219"
     x="1.1582031"
     y="1.2109375" />
</svg>
