<?xml version="1.0" encoding="UTF-8" standalone="no"?>
<svg
   role="img"
   focusable="false"
   aria-hidden="true"
   viewBox="0 0 14 14"
   version="1.1"
   id="svg6"
   sodipodi:docname="move_up.svg"
   inkscape:version="1.1 (c68e22c387, 2021-05-23)"
   xmlns:inkscape="http://www.inkscape.org/namespaces/inkscape"
   xmlns:sodipodi="http://sodipodi.sourceforge.net/DTD/sodipodi-0.dtd"
   xmlns="http://www.w3.org/2000/svg"
   xmlns:svg="http://www.w3.org/2000/svg">
  <defs
     id="defs10" />
  <sodipodi:namedview
     id="namedview8"
     pagecolor="#ffffff"
     bordercolor="#666666"
     borderopacity="1.0"
     inkscape:pageshadow="2"
     inkscape:pageopacity="0.0"
     inkscape:pagecheckerboard="0"
     showgrid="false"
     inkscape:zoom="59.428571"
     inkscape:cx="6.9915866"
     inkscape:cy="7.0084135"
     inkscape:window-width="1920"
     inkscape:window-height="1017"
     inkscape:window-x="-8"
     inkscape:window-y="-8"
     inkscape:window-maximized="1"
     inkscape:current-layer="svg6" />
  <path
     d="M.37890625 8.1582031c-.21 0-.37890625.2333375-.37890625.5234375v4.7929684C0 13.764609.16890625 14 .37890625 14H13.621094c.2101 0 .378906-.235391.378906-.525391V8.6816406c0-.2901-.168806-.5234375-.378906-.5234375H.37890625zm.67968755 1.2109375h3.2148437v3.4199214H1.0585938V9.3691406zm4.2832031 0h3.2148437v3.4199214H5.3417969V9.3691406zm4.2832031 0h3.216797v3.4199214H9.625V9.3691406z"
     id="path2" />
  <path
     fill="green"
     d="M10.9999 4.0319q0 .264-.1915.4658l-.3882.3882q-.1966.1965-.4709.1965-.2795 0-.4658-.1965L7.9618 3.3695v3.6436q0 .2691-.194.4372-.1941.1683-.4684.1683h-.6625q-.2743 0-.4684-.1683-.1941-.1681-.1941-.4372V3.3695L4.4528 4.8859q-.1863.1965-.4658.1965-.2795 0-.4658-.1965l-.3882-.3882q-.1966-.1967-.1966-.4658 0-.2742.1966-.471L6.5023.1917q.1812-.1916.4658-.1916.2795 0 .471.1916l3.3693 3.3692q.1915.2019.1915.471z"
     id="path4" />
  <rect
     style="fill:#2a82da;stroke:#cc3535;stroke-width:0;fill-opacity:1"
     id="rect145"
     width="11.783203"
     height="3.4199219"
     x="1.0585938"
     y="9.3691406" />
</svg>
