<?xml version="1.0" encoding="UTF-8" standalone="no"?>
<svg
   role="img"
   focusable="false"
   aria-hidden="true"
   viewBox="0 0 14 14"
   version="1.1"
   id="svg16"
   sodipodi:docname="today.svg"
   inkscape:version="1.1 (c68e22c387, 2021-05-23)"
   xmlns:inkscape="http://www.inkscape.org/namespaces/inkscape"
   xmlns:sodipodi="http://sodipodi.sourceforge.net/DTD/sodipodi-0.dtd"
   xmlns="http://www.w3.org/2000/svg"
   xmlns:svg="http://www.w3.org/2000/svg">
  <defs
     id="defs20" />
  <sodipodi:namedview
     id="namedview18"
     pagecolor="#ffffff"
     bordercolor="#666666"
     borderopacity="1.0"
     inkscape:pageshadow="2"
     inkscape:pageopacity="0.0"
     inkscape:pagecheckerboard="0"
     showgrid="false"
     inkscape:zoom="59.428571"
     inkscape:cx="6.9915865"
     inkscape:cy="7.0084135"
     inkscape:window-width="1920"
     inkscape:window-height="1017"
     inkscape:window-x="1912"
     inkscape:window-y="-8"
     inkscape:window-maximized="1"
     inkscape:current-layer="svg16" />
  <path
     fill="#cfd8dc"
     d="M1.15384611 11.7692308V4.38461536h11.69230778v7.38461544c0 .67692308-.55384616 1.23076924-1.23076924 1.23076924h-9.2307693c-.67692308 0-1.23076924-.55384616-1.23076924-1.23076924z"
     id="path2" />
  <path
     fill="#f44336"
     d="M12.84615389 3.15384612v1.84615386H1.15384611V3.15384612c0-.67692308.55384616-1.23076924 1.23076924-1.23076924h9.2307693c.67692308 0 1.23076924.55384616 1.23076924 1.23076924z"
     id="path4" />
  <g
     fill="#b71c1c"
     transform="translate(-.38461544 .07692302) scale(.3077)"
     id="g10">
    <circle
       cx="33"
       cy="10"
       r="3"
       id="circle6" />
    <circle
       cx="15"
       cy="10"
       r="3"
       id="circle8" />
  </g>
  <path
     fill="#b0bec5"
     d="M9.76923079.99999995c-.33846154 0-.61538462.27692308-.61538462.61538462v1.53846155c0 .33846154.27692308.61538462.61538462.61538462.33846154 0 .61538462-.27692308.61538462-.61538462V1.61538457c0-.33846154-.27692308-.61538462-.61538462-.61538462zm-5.53846158 0c-.33846154 0-.61538462.27692308-.61538462.61538462v1.53846155c0 .33846154.27692308.61538462.61538462.61538462.33846154 0 .61538462-.27692308.61538462-.61538462V1.61538457c0-.33846154-.27692308-.61538462-.61538462-.61538462zm-.61538462 5.53846158h1.84615386v1.84615386H3.61538459zm2.46153848 0h1.84615386v1.84615386H6.07692307zm2.46153848 0h1.84615386v1.84615386H8.53846155zM3.61538459 9.00000001h1.84615386v1.84615386H3.61538459zm2.46153848 0h1.84615386v1.84615386H6.07692307z"
     id="path12" />
  <path
     fill="#f44336"
     d="M 8.2123722,8.6706731 H 10.743098 V 11.173077 H 8.2123722 Z"
     id="path14-0"
     style="fill:#ffff00;fill-opacity:1;stroke-width:1.36312" />
  <path
     fill="#f44336"
     d="M8.53846155 9.00000001h1.84615386v1.84615386H8.53846155z"
     id="path14"
     style="fill:#00b400;fill-opacity:1" />
</svg>
